<svg width="311" height="353" viewBox="0 0 311 353" fill="none" xmlns="http://www.w3.org/2000/svg">
<rect x="1.18018" y="1.02197" width="124.777" height="68.4315" rx="9" fill="#D5DFFF"/>
<rect x="1.18018" y="1.02197" width="124.777" height="68.4315" rx="9" stroke="#A0AEE3" stroke-width="2" stroke-dasharray="4 4"/>
<path d="M27.9017 21.6218C27.9017 22.2725 27.7524 22.8698 27.4537 23.4138C27.1551 23.9471 26.6964 24.3791 26.0777 24.7098C25.4591 25.0405 24.6911 25.2058 23.7737 25.2058H22.0777V29.2378H19.3417V18.0058H23.7737C24.6697 18.0058 25.4271 18.1605 26.0457 18.4698C26.6644 18.7791 27.1284 19.2058 27.4377 19.7498C27.7471 20.2938 27.9017 20.9178 27.9017 21.6218ZM23.5657 23.0298C24.0884 23.0298 24.4777 22.9071 24.7337 22.6618C24.9897 22.4165 25.1177 22.0698 25.1177 21.6218C25.1177 21.1738 24.9897 20.8271 24.7337 20.5818C24.4777 20.3365 24.0884 20.2138 23.5657 20.2138H22.0777V23.0298H23.5657ZM33.3901 29.3658C32.5154 29.3658 31.7261 29.1791 31.0221 28.8058C30.3288 28.4325 29.7794 27.8991 29.3741 27.2058C28.9794 26.5125 28.7821 25.7018 28.7821 24.7738C28.7821 23.8565 28.9848 23.0511 29.3901 22.3578C29.7954 21.6538 30.3501 21.1151 31.0541 20.7418C31.7581 20.3685 32.5474 20.1818 33.4221 20.1818C34.2968 20.1818 35.0861 20.3685 35.7901 20.7418C36.4941 21.1151 37.0488 21.6538 37.4541 22.3578C37.8594 23.0511 38.0621 23.8565 38.0621 24.7738C38.0621 25.6911 37.8541 26.5018 37.4381 27.2058C37.0328 27.8991 36.4728 28.4325 35.7581 28.8058C35.0541 29.1791 34.2648 29.3658 33.3901 29.3658ZM33.3901 26.9978C33.9128 26.9978 34.3554 26.8058 34.7181 26.4218C35.0914 26.0378 35.2781 25.4885 35.2781 24.7738C35.2781 24.0591 35.0968 23.5098 34.7341 23.1258C34.3821 22.7418 33.9448 22.5498 33.4221 22.5498C32.8888 22.5498 32.4461 22.7418 32.0941 23.1258C31.7421 23.4991 31.5661 24.0485 31.5661 24.7738C31.5661 25.4885 31.7368 26.0378 32.0781 26.4218C32.4301 26.8058 32.8674 26.9978 33.3901 26.9978ZM52.3296 20.3098L49.9136 29.2378H46.8896L45.4816 23.4458L44.0256 29.2378H41.0176L38.5856 20.3098H41.3216L42.5856 26.6938L44.0896 20.3098H46.9856L48.5056 26.6618L49.7536 20.3098H52.3296ZM61.789 24.6298C61.789 24.8858 61.773 25.1525 61.741 25.4298H55.549C55.5916 25.9845 55.7676 26.4111 56.077 26.7098C56.397 26.9978 56.7863 27.1418 57.245 27.1418C57.9276 27.1418 58.4023 26.8538 58.669 26.2778H61.581C61.4316 26.8645 61.1596 27.3925 60.765 27.8618C60.381 28.3311 59.8956 28.6991 59.309 28.9658C58.7223 29.2325 58.0663 29.3658 57.341 29.3658C56.4663 29.3658 55.6876 29.1791 55.005 28.8058C54.3223 28.4325 53.789 27.8991 53.405 27.2058C53.021 26.5125 52.829 25.7018 52.829 24.7738C52.829 23.8458 53.0156 23.0351 53.389 22.3418C53.773 21.6485 54.3063 21.1151 54.989 20.7418C55.6716 20.3685 56.4556 20.1818 57.341 20.1818C58.205 20.1818 58.973 20.3631 59.645 20.7258C60.317 21.0885 60.8396 21.6058 61.213 22.2778C61.597 22.9498 61.789 23.7338 61.789 24.6298ZM58.989 23.9098C58.989 23.4405 58.829 23.0671 58.509 22.7898C58.189 22.5125 57.789 22.3738 57.309 22.3738C56.8503 22.3738 56.461 22.5071 56.141 22.7738C55.8316 23.0405 55.6396 23.4191 55.565 23.9098H58.989ZM65.9684 21.7978C66.2884 21.3071 66.6884 20.9231 67.1684 20.6458C67.6484 20.3578 68.1817 20.2138 68.7684 20.2138V23.1098H68.0164C67.3337 23.1098 66.8217 23.2591 66.4804 23.5578C66.139 23.8458 65.9684 24.3578 65.9684 25.0938V29.2378H63.2324V20.3098H65.9684V21.7978ZM75.0521 26.9178V29.2378H73.6601C72.6681 29.2378 71.8948 28.9978 71.3401 28.5178C70.7854 28.0271 70.5081 27.2325 70.5081 26.1338V22.5818H69.4201V20.3098H70.5081V18.1338H73.2441V20.3098H75.0361V22.5818H73.2441V26.1658C73.2441 26.4325 73.3081 26.6245 73.4361 26.7418C73.5641 26.8591 73.7774 26.9178 74.0761 26.9178H75.0521ZM79.3121 21.7978C79.6321 21.3071 80.0321 20.9231 80.5121 20.6458C80.9921 20.3578 81.5254 20.2138 82.1121 20.2138V23.1098H81.3601C80.6774 23.1098 80.1654 23.2591 79.8241 23.5578C79.4828 23.8458 79.3121 24.3578 79.3121 25.0938V29.2378H76.5761V20.3098H79.3121V21.7978ZM82.8759 24.7578C82.8759 23.8405 83.0465 23.0351 83.3879 22.3418C83.7399 21.6485 84.2145 21.1151 84.8119 20.7418C85.4092 20.3685 86.0759 20.1818 86.8119 20.1818C87.4412 20.1818 87.9905 20.3098 88.4599 20.5658C88.9399 20.8218 89.3079 21.1578 89.5639 21.5738V20.3098H92.2999V29.2378H89.5639V27.9738C89.2972 28.3898 88.9239 28.7258 88.4439 28.9818C87.9745 29.2378 87.4252 29.3658 86.7959 29.3658C86.0705 29.3658 85.4092 29.1791 84.8119 28.8058C84.2145 28.4218 83.7399 27.8831 83.3879 27.1898C83.0465 26.4858 82.8759 25.6751 82.8759 24.7578ZM89.5639 24.7738C89.5639 24.0911 89.3719 23.5525 88.9879 23.1578C88.6145 22.7631 88.1559 22.5658 87.6119 22.5658C87.0679 22.5658 86.6039 22.7631 86.2199 23.1578C85.8465 23.5418 85.6599 24.0751 85.6599 24.7578C85.6599 25.4405 85.8465 25.9845 86.2199 26.3898C86.6039 26.7845 87.0679 26.9818 87.6119 26.9818C88.1559 26.9818 88.6145 26.7845 88.9879 26.3898C89.3719 25.9951 89.5639 25.4565 89.5639 24.7738ZM95.6552 19.3818C95.1752 19.3818 94.7806 19.2431 94.4712 18.9658C94.1726 18.6778 94.0232 18.3258 94.0232 17.9098C94.0232 17.4831 94.1726 17.1311 94.4712 16.8538C94.7806 16.5658 95.1752 16.4218 95.6552 16.4218C96.1246 16.4218 96.5086 16.5658 96.8072 16.8538C97.1166 17.1311 97.2712 17.4831 97.2712 17.9098C97.2712 18.3258 97.1166 18.6778 96.8072 18.9658C96.5086 19.2431 96.1246 19.3818 95.6552 19.3818ZM97.0152 20.3098V29.2378H94.2792V20.3098H97.0152ZM104.438 20.2138C105.483 20.2138 106.315 20.5551 106.934 21.2378C107.563 21.9098 107.878 22.8378 107.878 24.0218V29.2378H105.158V24.3898C105.158 23.7925 105.003 23.3285 104.694 22.9978C104.385 22.6671 103.969 22.5018 103.446 22.5018C102.923 22.5018 102.507 22.6671 102.198 22.9978C101.889 23.3285 101.734 23.7925 101.734 24.3898V29.2378H98.998V20.3098H101.734V21.4938C102.011 21.0991 102.385 20.7898 102.854 20.5658C103.323 20.3311 103.851 20.2138 104.438 20.2138ZM36.2138 42.0058C37.3978 42.0058 38.4325 42.2405 39.3178 42.7098C40.2031 43.1791 40.8858 43.8405 41.3658 44.6938C41.8565 45.5365 42.1018 46.5125 42.1018 47.6218C42.1018 48.7205 41.8565 49.6965 41.3658 50.5498C40.8858 51.4031 40.1978 52.0645 39.3018 52.5338C38.4165 53.0031 37.3871 53.2378 36.2138 53.2378H32.0058V42.0058H36.2138ZM36.0378 50.8698C37.0725 50.8698 37.8778 50.5871 38.4538 50.0218C39.0298 49.4565 39.3178 48.6565 39.3178 47.6218C39.3178 46.5871 39.0298 45.7818 38.4538 45.2058C37.8778 44.6298 37.0725 44.3418 36.0378 44.3418H34.7418V50.8698H36.0378ZM47.6948 53.3658C46.8201 53.3658 46.0308 53.1791 45.3268 52.8058C44.6335 52.4325 44.0841 51.8991 43.6788 51.2058C43.2841 50.5125 43.0868 49.7018 43.0868 48.7738C43.0868 47.8565 43.2895 47.0511 43.6948 46.3578C44.1001 45.6538 44.6548 45.1151 45.3588 44.7418C46.0628 44.3685 46.8521 44.1818 47.7268 44.1818C48.6015 44.1818 49.3908 44.3685 50.0948 44.7418C50.7988 45.1151 51.3535 45.6538 51.7588 46.3578C52.1641 47.0511 52.3668 47.8565 52.3668 48.7738C52.3668 49.6911 52.1588 50.5018 51.7428 51.2058C51.3375 51.8991 50.7775 52.4325 50.0628 52.8058C49.3588 53.1791 48.5695 53.3658 47.6948 53.3658ZM47.6948 50.9978C48.2175 50.9978 48.6601 50.8058 49.0228 50.4218C49.3961 50.0378 49.5828 49.4885 49.5828 48.7738C49.5828 48.0591 49.4015 47.5098 49.0388 47.1258C48.6868 46.7418 48.2495 46.5498 47.7268 46.5498C47.1935 46.5498 46.7508 46.7418 46.3988 47.1258C46.0468 47.4991 45.8708 48.0485 45.8708 48.7738C45.8708 49.4885 46.0415 50.0378 46.3828 50.4218C46.7348 50.8058 47.1721 50.9978 47.6948 50.9978ZM65.2103 44.2138C66.3196 44.2138 67.1996 44.5498 67.8503 45.2218C68.5116 45.8938 68.8423 46.8271 68.8423 48.0218V53.2378H66.1223V48.3898C66.1223 47.8138 65.9676 47.3711 65.6583 47.0618C65.3596 46.7418 64.9436 46.5818 64.4103 46.5818C63.877 46.5818 63.4556 46.7418 63.1463 47.0618C62.8476 47.3711 62.6983 47.8138 62.6983 48.3898V53.2378H59.9783V48.3898C59.9783 47.8138 59.8236 47.3711 59.5143 47.0618C59.2156 46.7418 58.7996 46.5818 58.2663 46.5818C57.733 46.5818 57.3116 46.7418 57.0023 47.0618C56.7036 47.3711 56.5543 47.8138 56.5543 48.3898V53.2378H53.8183V44.3098H56.5543V45.4298C56.8316 45.0565 57.1943 44.7631 57.6423 44.5498C58.0903 44.3258 58.597 44.2138 59.1623 44.2138C59.8343 44.2138 60.4316 44.3578 60.9543 44.6458C61.4876 44.9338 61.9036 45.3445 62.2023 45.8778C62.5116 45.3871 62.933 44.9871 63.4663 44.6778C63.9996 44.3685 64.581 44.2138 65.2103 44.2138ZM70.2118 48.7578C70.2118 47.8405 70.3825 47.0351 70.7238 46.3418C71.0758 45.6485 71.5505 45.1151 72.1478 44.7418C72.7451 44.3685 73.4118 44.1818 74.1478 44.1818C74.7771 44.1818 75.3265 44.3098 75.7958 44.5658C76.2758 44.8218 76.6438 45.1578 76.8998 45.5738V44.3098H79.6358V53.2378H76.8998V51.9738C76.6331 52.3898 76.2598 52.7258 75.7798 52.9818C75.3105 53.2378 74.7611 53.3658 74.1318 53.3658C73.4065 53.3658 72.7451 53.1791 72.1478 52.8058C71.5505 52.4218 71.0758 51.8831 70.7238 51.1898C70.3825 50.4858 70.2118 49.6751 70.2118 48.7578ZM76.8998 48.7738C76.8998 48.0911 76.7078 47.5525 76.3238 47.1578C75.9505 46.7631 75.4918 46.5658 74.9478 46.5658C74.4038 46.5658 73.9398 46.7631 73.5558 47.1578C73.1825 47.5418 72.9958 48.0751 72.9958 48.7578C72.9958 49.4405 73.1825 49.9845 73.5558 50.3898C73.9398 50.7845 74.4038 50.9818 74.9478 50.9818C75.4918 50.9818 75.9505 50.7845 76.3238 50.3898C76.7078 49.9951 76.8998 49.4565 76.8998 48.7738ZM82.9912 43.3818C82.5112 43.3818 82.1165 43.2431 81.8072 42.9658C81.5085 42.6778 81.3592 42.3258 81.3592 41.9098C81.3592 41.4831 81.5085 41.1311 81.8072 40.8538C82.1165 40.5658 82.5112 40.4218 82.9912 40.4218C83.4605 40.4218 83.8445 40.5658 84.1432 40.8538C84.4525 41.1311 84.6072 41.4831 84.6072 41.9098C84.6072 42.3258 84.4525 42.6778 84.1432 42.9658C83.8445 43.2431 83.4605 43.3818 82.9912 43.3818ZM84.3512 44.3098V53.2378H81.6152V44.3098H84.3512ZM91.7739 44.2138C92.8193 44.2138 93.6513 44.5551 94.2699 45.2378C94.8993 45.9098 95.2139 46.8378 95.2139 48.0218V53.2378H92.4939V48.3898C92.4939 47.7925 92.3393 47.3285 92.0299 46.9978C91.7206 46.6671 91.3046 46.5018 90.7819 46.5018C90.2593 46.5018 89.8433 46.6671 89.5339 46.9978C89.2246 47.3285 89.0699 47.7925 89.0699 48.3898V53.2378H86.3339V44.3098H89.0699V45.4938C89.3473 45.0991 89.7206 44.7898 90.1899 44.5658C90.6593 44.3311 91.1873 44.2138 91.7739 44.2138Z" fill="#7A92EE"/>
<rect x="1.18018" y="201.752" width="124.777" height="68.4315" rx="9" fill="#D5DFFF"/>
<rect x="1.18018" y="201.752" width="124.777" height="68.4315" rx="9" stroke="#A0AEE3" stroke-width="2" stroke-dasharray="4 4"/>
<path d="M50.509 224.208C51.1597 224.346 51.6824 224.672 52.077 225.184C52.4717 225.685 52.669 226.261 52.669 226.912C52.669 227.85 52.3384 228.597 51.677 229.152C51.0264 229.696 50.1144 229.968 48.941 229.968H43.709V218.736H48.765C49.9064 218.736 50.797 218.997 51.437 219.52C52.0877 220.042 52.413 220.752 52.413 221.648C52.413 222.309 52.237 222.858 51.885 223.296C51.5437 223.733 51.085 224.037 50.509 224.208ZM46.445 223.28H48.237C48.685 223.28 49.0264 223.184 49.261 222.992C49.5064 222.789 49.629 222.496 49.629 222.112C49.629 221.728 49.5064 221.434 49.261 221.232C49.0264 221.029 48.685 220.928 48.237 220.928H46.445V223.28ZM48.461 227.76C48.9197 227.76 49.2717 227.658 49.517 227.456C49.773 227.242 49.901 226.938 49.901 226.544C49.901 226.149 49.7677 225.84 49.501 225.616C49.245 225.392 48.8877 225.28 48.429 225.28H46.445V227.76H48.461ZM58.3199 230.096C57.4452 230.096 56.6559 229.909 55.9519 229.536C55.2586 229.162 54.7092 228.629 54.3039 227.936C53.9092 227.242 53.7119 226.432 53.7119 225.504C53.7119 224.586 53.9146 223.781 54.3199 223.088C54.7252 222.384 55.2799 221.845 55.9839 221.472C56.6879 221.098 57.4772 220.912 58.3519 220.912C59.2266 220.912 60.0159 221.098 60.7199 221.472C61.4239 221.845 61.9786 222.384 62.3839 223.088C62.7893 223.781 62.9919 224.586 62.9919 225.504C62.9919 226.421 62.7839 227.232 62.3679 227.936C61.9626 228.629 61.4026 229.162 60.6879 229.536C59.9839 229.909 59.1946 230.096 58.3199 230.096ZM58.3199 227.728C58.8426 227.728 59.2852 227.536 59.6479 227.152C60.0212 226.768 60.2079 226.218 60.2079 225.504C60.2079 224.789 60.0266 224.24 59.6639 223.856C59.3119 223.472 58.8746 223.28 58.3519 223.28C57.8186 223.28 57.3759 223.472 57.0239 223.856C56.6719 224.229 56.4959 224.778 56.4959 225.504C56.4959 226.218 56.6666 226.768 57.0079 227.152C57.3599 227.536 57.7972 227.728 58.3199 227.728ZM63.8994 225.488C63.8994 224.57 64.0701 223.765 64.4114 223.072C64.7634 222.378 65.2381 221.845 65.8354 221.472C66.4327 221.098 67.0994 220.912 67.8354 220.912C68.4221 220.912 68.9554 221.034 69.4354 221.28C69.9261 221.525 70.3101 221.856 70.5874 222.272V218.128H73.3234V229.968H70.5874V228.688C70.3314 229.114 69.9634 229.456 69.4834 229.712C69.0141 229.968 68.4647 230.096 67.8354 230.096C67.0994 230.096 66.4327 229.909 65.8354 229.536C65.2381 229.152 64.7634 228.613 64.4114 227.92C64.0701 227.216 63.8994 226.405 63.8994 225.488ZM70.5874 225.504C70.5874 224.821 70.3954 224.282 70.0114 223.888C69.6381 223.493 69.1794 223.296 68.6354 223.296C68.0914 223.296 67.6274 223.493 67.2434 223.888C66.8701 224.272 66.6834 224.805 66.6834 225.488C66.6834 226.17 66.8701 226.714 67.2434 227.12C67.6274 227.514 68.0914 227.712 68.6354 227.712C69.1794 227.712 69.6381 227.514 70.0114 227.12C70.3954 226.725 70.5874 226.186 70.5874 225.504ZM84.4228 221.04L78.8228 234.208H75.8788L77.9268 229.664L74.2948 221.04H77.3508L79.4148 226.624L81.4628 221.04H84.4228ZM33.3935 248.336C33.3935 247.226 33.6335 246.24 34.1135 245.376C34.5935 244.501 35.2601 243.824 36.1135 243.344C36.9775 242.853 37.9535 242.608 39.0415 242.608C40.3748 242.608 41.5161 242.96 42.4655 243.664C43.4148 244.368 44.0495 245.328 44.3695 246.544H41.3615C41.1375 246.074 40.8175 245.717 40.4015 245.472C39.9961 245.226 39.5321 245.104 39.0095 245.104C38.1668 245.104 37.4841 245.397 36.9615 245.984C36.4388 246.57 36.1775 247.354 36.1775 248.336C36.1775 249.317 36.4388 250.101 36.9615 250.688C37.4841 251.274 38.1668 251.568 39.0095 251.568C39.5321 251.568 39.9961 251.445 40.4015 251.2C40.8175 250.954 41.1375 250.597 41.3615 250.128H44.3695C44.0495 251.344 43.4148 252.304 42.4655 253.008C41.5161 253.701 40.3748 254.048 39.0415 254.048C37.9535 254.048 36.9775 253.808 36.1135 253.328C35.2601 252.837 34.5935 252.16 34.1135 251.296C33.6335 250.432 33.3935 249.445 33.3935 248.336ZM50.109 254.096C49.2343 254.096 48.445 253.909 47.741 253.536C47.0476 253.162 46.4983 252.629 46.093 251.936C45.6983 251.242 45.501 250.432 45.501 249.504C45.501 248.586 45.7036 247.781 46.109 247.088C46.5143 246.384 47.069 245.845 47.773 245.472C48.477 245.098 49.2663 244.912 50.141 244.912C51.0156 244.912 51.805 245.098 52.509 245.472C53.213 245.845 53.7676 246.384 54.173 247.088C54.5783 247.781 54.781 248.586 54.781 249.504C54.781 250.421 54.573 251.232 54.157 251.936C53.7516 252.629 53.1916 253.162 52.477 253.536C51.773 253.909 50.9836 254.096 50.109 254.096ZM50.109 251.728C50.6316 251.728 51.0743 251.536 51.437 251.152C51.8103 250.768 51.997 250.218 51.997 249.504C51.997 248.789 51.8156 248.24 51.453 247.856C51.101 247.472 50.6636 247.28 50.141 247.28C49.6076 247.28 49.165 247.472 48.813 247.856C48.461 248.229 48.285 248.778 48.285 249.504C48.285 250.218 48.4556 250.768 48.797 251.152C49.149 251.536 49.5863 251.728 50.109 251.728ZM61.6725 244.944C62.7178 244.944 63.5498 245.285 64.1685 245.968C64.7978 246.64 65.1125 247.568 65.1125 248.752V253.968H62.3925V249.12C62.3925 248.522 62.2378 248.058 61.9285 247.728C61.6191 247.397 61.2031 247.232 60.6805 247.232C60.1578 247.232 59.7418 247.397 59.4325 247.728C59.1231 248.058 58.9685 248.522 58.9685 249.12V253.968H56.2325V245.04H58.9685V246.224C59.2458 245.829 59.6191 245.52 60.0885 245.296C60.5578 245.061 61.0858 244.944 61.6725 244.944ZM71.9897 251.648V253.968H70.5977C69.6057 253.968 68.8324 253.728 68.2777 253.248C67.7231 252.757 67.4457 251.962 67.4457 250.864V247.312H66.3577V245.04H67.4457V242.864H70.1817V245.04H71.9737V247.312H70.1817V250.896C70.1817 251.162 70.2457 251.354 70.3737 251.472C70.5017 251.589 70.7151 251.648 71.0137 251.648H71.9897ZM76.2497 246.528C76.5697 246.037 76.9697 245.653 77.4497 245.376C77.9297 245.088 78.4631 244.944 79.0497 244.944V247.84H78.2977C77.6151 247.84 77.1031 247.989 76.7617 248.288C76.4204 248.576 76.2497 249.088 76.2497 249.824V253.968H73.5137V245.04H76.2497V246.528ZM84.4215 254.096C83.5468 254.096 82.7575 253.909 82.0535 253.536C81.3601 253.162 80.8108 252.629 80.4055 251.936C80.0108 251.242 79.8135 250.432 79.8135 249.504C79.8135 248.586 80.0161 247.781 80.4215 247.088C80.8268 246.384 81.3815 245.845 82.0855 245.472C82.7895 245.098 83.5788 244.912 84.4535 244.912C85.3281 244.912 86.1175 245.098 86.8215 245.472C87.5255 245.845 88.0801 246.384 88.4855 247.088C88.8908 247.781 89.0935 248.586 89.0935 249.504C89.0935 250.421 88.8855 251.232 88.4695 251.936C88.0641 252.629 87.5041 253.162 86.7895 253.536C86.0855 253.909 85.2961 254.096 84.4215 254.096ZM84.4215 251.728C84.9441 251.728 85.3868 251.536 85.7495 251.152C86.1228 250.768 86.3095 250.218 86.3095 249.504C86.3095 248.789 86.1281 248.24 85.7655 247.856C85.4135 247.472 84.9761 247.28 84.4535 247.28C83.9201 247.28 83.4775 247.472 83.1255 247.856C82.7735 248.229 82.5975 248.778 82.5975 249.504C82.5975 250.218 82.7681 250.768 83.1095 251.152C83.4615 251.536 83.8988 251.728 84.4215 251.728ZM93.281 242.128V253.968H90.545V242.128H93.281Z" fill="#7A92EE"/>
<rect x="116.688" y="287.678" width="76.8833" height="41.6675" rx="9" fill="#D5DFFF"/>
<rect x="116.688" y="287.678" width="76.8833" height="41.6675" rx="9" stroke="#2F59D3" stroke-width="2"/>
<path d="M147.74 303.28V305.472H144.764V314.512H142.028V305.472H139.052V303.28H147.74ZM148.65 308.88C148.65 307.771 148.89 306.784 149.37 305.92C149.85 305.045 150.516 304.368 151.37 303.888C152.234 303.397 153.21 303.152 154.298 303.152C155.631 303.152 156.772 303.504 157.722 304.208C158.671 304.912 159.306 305.872 159.626 307.088H156.618C156.394 306.619 156.074 306.261 155.658 306.016C155.252 305.771 154.788 305.648 154.266 305.648C153.423 305.648 152.74 305.941 152.218 306.528C151.695 307.115 151.434 307.899 151.434 308.88C151.434 309.861 151.695 310.645 152.218 311.232C152.74 311.819 153.423 312.112 154.266 312.112C154.788 312.112 155.252 311.989 155.658 311.744C156.074 311.499 156.394 311.141 156.618 310.672H159.626C159.306 311.888 158.671 312.848 157.722 313.552C156.772 314.245 155.631 314.592 154.298 314.592C153.21 314.592 152.234 314.352 151.37 313.872C150.516 313.381 149.85 312.704 149.37 311.84C148.89 310.976 148.65 309.989 148.65 308.88ZM163.989 303.28V310C163.989 310.672 164.154 311.189 164.485 311.552C164.816 311.915 165.301 312.096 165.941 312.096C166.581 312.096 167.072 311.915 167.413 311.552C167.754 311.189 167.925 310.672 167.925 310V303.28H170.661V309.984C170.661 310.987 170.448 311.835 170.021 312.528C169.594 313.221 169.018 313.744 168.293 314.096C167.578 314.448 166.778 314.624 165.893 314.624C165.008 314.624 164.213 314.453 163.509 314.112C162.816 313.76 162.266 313.237 161.861 312.544C161.456 311.84 161.253 310.987 161.253 309.984V303.28H163.989Z" fill="#2F59D3"/>
<rect x="27.9441" y="312.9" width="71.2487" height="38.8503" rx="9" fill="#FFEEEE"/>
<rect x="27.9441" y="312.9" width="71.2487" height="38.8503" rx="9" stroke="#F66079" stroke-width="2"/>
<path d="M57.8679 327.093L54.9399 338.325H51.6279L49.8359 330.933L47.9799 338.325H44.6679L41.8199 327.093H44.7479L46.3639 335.269L48.3639 327.093H51.3719L53.2919 335.269L54.9239 327.093H57.8679ZM60.616 328.469C60.136 328.469 59.7414 328.331 59.432 328.053C59.1334 327.765 58.984 327.413 58.984 326.997C58.984 326.571 59.1334 326.219 59.432 325.941C59.7414 325.653 60.136 325.509 60.616 325.509C61.0854 325.509 61.4694 325.653 61.768 325.941C62.0774 326.219 62.232 326.571 62.232 326.997C62.232 327.413 62.0774 327.765 61.768 328.053C61.4694 328.331 61.0854 328.469 60.616 328.469ZM61.976 329.397V338.325H59.24V329.397H61.976ZM70.8388 331.573V333.845H63.7988V331.573H70.8388ZM80.552 327.093V329.285H75.976V331.653H79.4V333.781H75.976V338.325H73.24V327.093H80.552ZM83.366 328.469C82.886 328.469 82.4914 328.331 82.182 328.053C81.8834 327.765 81.734 327.413 81.734 326.997C81.734 326.571 81.8834 326.219 82.182 325.941C82.4914 325.653 82.886 325.509 83.366 325.509C83.8354 325.509 84.2194 325.653 84.518 325.941C84.8274 326.219 84.982 326.571 84.982 326.997C84.982 327.413 84.8274 327.765 84.518 328.053C84.2194 328.331 83.8354 328.469 83.366 328.469ZM84.726 329.397V338.325H81.99V329.397H84.726Z" fill="#F66079"/>
<rect x="221.759" y="312.9" width="71.2487" height="38.8503" rx="9" fill="#FFEEEE"/>
<rect x="221.759" y="312.9" width="71.2487" height="38.8503" rx="9" stroke="#F66079" stroke-width="2"/>
<path d="M245.228 327.093V333.813C245.228 334.485 245.393 335.003 245.724 335.365C246.054 335.728 246.54 335.909 247.18 335.909C247.82 335.909 248.31 335.728 248.652 335.365C248.993 335.003 249.164 334.485 249.164 333.813V327.093H251.9V333.797C251.9 334.8 251.686 335.648 251.26 336.341C250.833 337.035 250.257 337.557 249.532 337.909C248.817 338.261 248.017 338.437 247.132 338.437C246.246 338.437 245.452 338.267 244.748 337.925C244.054 337.573 243.505 337.051 243.1 336.357C242.694 335.653 242.492 334.8 242.492 333.797V327.093H245.228ZM257.885 338.437C257.064 338.437 256.328 338.304 255.677 338.037C255.026 337.771 254.504 337.376 254.109 336.853C253.725 336.331 253.522 335.701 253.501 334.965H256.413C256.456 335.381 256.6 335.701 256.845 335.925C257.09 336.139 257.41 336.245 257.805 336.245C258.21 336.245 258.53 336.155 258.765 335.973C259 335.781 259.117 335.52 259.117 335.189C259.117 334.912 259.021 334.683 258.829 334.501C258.648 334.32 258.418 334.171 258.141 334.053C257.874 333.936 257.49 333.803 256.989 333.653C256.264 333.429 255.672 333.205 255.213 332.981C254.754 332.757 254.36 332.427 254.029 331.989C253.698 331.552 253.533 330.981 253.533 330.277C253.533 329.232 253.912 328.416 254.669 327.829C255.426 327.232 256.413 326.933 257.629 326.933C258.866 326.933 259.864 327.232 260.621 327.829C261.378 328.416 261.784 329.237 261.837 330.293H258.877C258.856 329.931 258.722 329.648 258.477 329.445C258.232 329.232 257.917 329.125 257.533 329.125C257.202 329.125 256.936 329.216 256.733 329.397C256.53 329.568 256.429 329.819 256.429 330.149C256.429 330.512 256.6 330.795 256.941 330.997C257.282 331.2 257.816 331.419 258.541 331.653C259.266 331.899 259.853 332.133 260.301 332.357C260.76 332.581 261.154 332.907 261.485 333.333C261.816 333.76 261.981 334.309 261.981 334.981C261.981 335.621 261.816 336.203 261.485 336.725C261.165 337.248 260.696 337.664 260.077 337.973C259.458 338.283 258.728 338.437 257.885 338.437ZM270.465 332.565C271.115 332.704 271.638 333.029 272.033 333.541C272.427 334.043 272.625 334.619 272.625 335.269C272.625 336.208 272.294 336.955 271.633 337.509C270.982 338.053 270.07 338.325 268.897 338.325H263.665V327.093H268.721C269.862 327.093 270.753 327.355 271.393 327.877C272.043 328.4 272.369 329.109 272.369 330.005C272.369 330.667 272.193 331.216 271.841 331.653C271.499 332.091 271.041 332.395 270.465 332.565ZM266.401 331.637H268.193C268.641 331.637 268.982 331.541 269.217 331.349C269.462 331.147 269.585 330.853 269.585 330.469C269.585 330.085 269.462 329.792 269.217 329.589C268.982 329.387 268.641 329.285 268.193 329.285H266.401V331.637ZM268.417 336.117C268.875 336.117 269.227 336.016 269.473 335.813C269.729 335.6 269.857 335.296 269.857 334.901C269.857 334.507 269.723 334.197 269.457 333.973C269.201 333.749 268.843 333.637 268.385 333.637H266.401V336.117H268.417Z" fill="#F66079"/>
<rect x="195.759" y="203.658" width="114" height="62" rx="9" fill="#D5DFFF"/>
<rect x="195.759" y="203.658" width="114" height="62" rx="9" stroke="#2F59D3" stroke-width="2"/>
<path d="M210.175 217.426V228.658H207.439V217.426H210.175ZM217.598 219.634C218.643 219.634 219.475 219.975 220.094 220.658C220.723 221.33 221.038 222.258 221.038 223.442V228.658H218.318V223.81C218.318 223.212 218.163 222.748 217.854 222.418C217.544 222.087 217.128 221.922 216.606 221.922C216.083 221.922 215.667 222.087 215.358 222.418C215.048 222.748 214.894 223.212 214.894 223.81V228.658H212.158V219.73H214.894V220.914C215.171 220.519 215.544 220.21 216.014 219.986C216.483 219.751 217.011 219.634 217.598 219.634ZM226.571 228.786C225.792 228.786 225.099 228.652 224.491 228.386C223.883 228.119 223.403 227.756 223.051 227.298C222.699 226.828 222.501 226.306 222.459 225.73H225.163C225.195 226.039 225.339 226.29 225.595 226.482C225.851 226.674 226.165 226.77 226.539 226.77C226.88 226.77 227.141 226.706 227.323 226.578C227.515 226.439 227.611 226.263 227.611 226.05C227.611 225.794 227.477 225.607 227.211 225.49C226.944 225.362 226.512 225.223 225.915 225.074C225.275 224.924 224.741 224.77 224.315 224.61C223.888 224.439 223.52 224.178 223.211 223.826C222.901 223.463 222.747 222.978 222.747 222.37C222.747 221.858 222.885 221.394 223.163 220.978C223.451 220.551 223.867 220.215 224.411 219.97C224.965 219.724 225.621 219.602 226.379 219.602C227.499 219.602 228.379 219.879 229.019 220.434C229.669 220.988 230.043 221.724 230.139 222.642H227.611C227.568 222.332 227.429 222.087 227.195 221.906C226.971 221.724 226.672 221.634 226.299 221.634C225.979 221.634 225.733 221.698 225.563 221.826C225.392 221.943 225.307 222.108 225.307 222.322C225.307 222.578 225.44 222.77 225.707 222.898C225.984 223.026 226.411 223.154 226.987 223.282C227.648 223.452 228.187 223.623 228.603 223.794C229.019 223.954 229.381 224.22 229.691 224.594C230.011 224.956 230.176 225.447 230.187 226.066C230.187 226.588 230.037 227.058 229.739 227.474C229.451 227.879 229.029 228.199 228.475 228.434C227.931 228.668 227.296 228.786 226.571 228.786ZM236.837 226.338V228.658H235.445C234.453 228.658 233.679 228.418 233.125 227.938C232.57 227.447 232.293 226.652 232.293 225.554V222.002H231.205V219.73H232.293V217.554H235.029V219.73H236.821V222.002H235.029V225.586C235.029 225.852 235.093 226.044 235.221 226.162C235.349 226.279 235.562 226.338 235.861 226.338H236.837ZM241.097 221.218C241.417 220.727 241.817 220.343 242.297 220.066C242.777 219.778 243.31 219.634 243.897 219.634V222.53H243.145C242.462 222.53 241.95 222.679 241.609 222.978C241.267 223.266 241.097 223.778 241.097 224.514V228.658H238.361V219.73H241.097V221.218ZM254.02 219.73V228.658H251.284V227.442C251.007 227.836 250.628 228.156 250.148 228.402C249.679 228.636 249.156 228.754 248.58 228.754C247.898 228.754 247.295 228.604 246.772 228.306C246.25 227.996 245.844 227.554 245.556 226.978C245.268 226.402 245.124 225.724 245.124 224.946V219.73H247.844V224.578C247.844 225.175 247.999 225.639 248.308 225.97C248.618 226.3 249.034 226.466 249.556 226.466C250.09 226.466 250.511 226.3 250.82 225.97C251.13 225.639 251.284 225.175 251.284 224.578V219.73H254.02ZM267.378 219.634C268.487 219.634 269.367 219.97 270.018 220.642C270.679 221.314 271.01 222.247 271.01 223.442V228.658H268.29V223.81C268.29 223.234 268.135 222.791 267.826 222.482C267.527 222.162 267.111 222.002 266.578 222.002C266.044 222.002 265.623 222.162 265.314 222.482C265.015 222.791 264.866 223.234 264.866 223.81V228.658H262.146V223.81C262.146 223.234 261.991 222.791 261.682 222.482C261.383 222.162 260.967 222.002 260.434 222.002C259.9 222.002 259.479 222.162 259.17 222.482C258.871 222.791 258.722 223.234 258.722 223.81V228.658H255.986V219.73H258.722V220.85C258.999 220.476 259.362 220.183 259.81 219.97C260.258 219.746 260.764 219.634 261.33 219.634C262.002 219.634 262.599 219.778 263.122 220.066C263.655 220.354 264.071 220.764 264.37 221.298C264.679 220.807 265.1 220.407 265.634 220.098C266.167 219.788 266.748 219.634 267.378 219.634ZM281.339 224.05C281.339 224.306 281.323 224.572 281.291 224.85H275.099C275.142 225.404 275.318 225.831 275.627 226.13C275.947 226.418 276.336 226.562 276.795 226.562C277.478 226.562 277.952 226.274 278.219 225.698H281.131C280.982 226.284 280.71 226.812 280.315 227.282C279.931 227.751 279.446 228.119 278.859 228.386C278.272 228.652 277.616 228.786 276.891 228.786C276.016 228.786 275.238 228.599 274.555 228.226C273.872 227.852 273.339 227.319 272.955 226.626C272.571 225.932 272.379 225.122 272.379 224.194C272.379 223.266 272.566 222.455 272.939 221.762C273.323 221.068 273.856 220.535 274.539 220.162C275.222 219.788 276.006 219.602 276.891 219.602C277.755 219.602 278.523 219.783 279.195 220.146C279.867 220.508 280.39 221.026 280.763 221.698C281.147 222.37 281.339 223.154 281.339 224.05ZM278.539 223.33C278.539 222.86 278.379 222.487 278.059 222.21C277.739 221.932 277.339 221.794 276.859 221.794C276.4 221.794 276.011 221.927 275.691 222.194C275.382 222.46 275.19 222.839 275.115 223.33H278.539ZM288.223 219.634C289.268 219.634 290.1 219.975 290.719 220.658C291.348 221.33 291.663 222.258 291.663 223.442V228.658H288.943V223.81C288.943 223.212 288.788 222.748 288.479 222.418C288.169 222.087 287.753 221.922 287.231 221.922C286.708 221.922 286.292 222.087 285.983 222.418C285.673 222.748 285.519 223.212 285.519 223.81V228.658H282.783V219.73H285.519V220.914C285.796 220.519 286.169 220.21 286.639 219.986C287.108 219.751 287.636 219.634 288.223 219.634ZM298.54 226.338V228.658H297.148C296.156 228.658 295.382 228.418 294.828 227.938C294.273 227.447 293.996 226.652 293.996 225.554V222.002H292.908V219.73H293.996V217.554H296.732V219.73H298.524V222.002H296.732V225.586C296.732 225.852 296.796 226.044 296.924 226.162C297.052 226.279 297.265 226.338 297.564 226.338H298.54ZM223.381 247.026C223.381 245.916 223.621 244.93 224.101 244.066C224.581 243.191 225.248 242.514 226.101 242.034C226.965 241.543 227.941 241.298 229.029 241.298C230.362 241.298 231.504 241.65 232.453 242.354C233.402 243.058 234.037 244.018 234.357 245.234H231.349C231.125 244.764 230.805 244.407 230.389 244.162C229.984 243.916 229.52 243.794 228.997 243.794C228.154 243.794 227.472 244.087 226.949 244.674C226.426 245.26 226.165 246.044 226.165 247.026C226.165 248.007 226.426 248.791 226.949 249.378C227.472 249.964 228.154 250.258 228.997 250.258C229.52 250.258 229.984 250.135 230.389 249.89C230.805 249.644 231.125 249.287 231.349 248.818H234.357C234.037 250.034 233.402 250.994 232.453 251.698C231.504 252.391 230.362 252.738 229.029 252.738C227.941 252.738 226.965 252.498 226.101 252.018C225.248 251.527 224.581 250.85 224.101 249.986C223.621 249.122 223.381 248.135 223.381 247.026ZM238.769 240.818V252.658H236.033V240.818H238.769ZM249.567 243.73V252.658H246.831V251.442C246.554 251.836 246.175 252.156 245.695 252.402C245.226 252.636 244.703 252.754 244.127 252.754C243.445 252.754 242.842 252.604 242.319 252.306C241.797 251.996 241.391 251.554 241.103 250.978C240.815 250.402 240.671 249.724 240.671 248.946V243.73H243.391V248.578C243.391 249.175 243.546 249.639 243.855 249.97C244.165 250.3 244.581 250.466 245.103 250.466C245.637 250.466 246.058 250.3 246.367 249.97C246.677 249.639 246.831 249.175 246.831 248.578V243.73H249.567ZM255.165 252.786C254.386 252.786 253.693 252.652 253.085 252.386C252.477 252.119 251.997 251.756 251.645 251.298C251.293 250.828 251.095 250.306 251.053 249.73H253.757C253.789 250.039 253.933 250.29 254.189 250.482C254.445 250.674 254.759 250.77 255.133 250.77C255.474 250.77 255.735 250.706 255.917 250.578C256.109 250.439 256.205 250.263 256.205 250.05C256.205 249.794 256.071 249.607 255.805 249.49C255.538 249.362 255.106 249.223 254.509 249.074C253.869 248.924 253.335 248.77 252.909 248.61C252.482 248.439 252.114 248.178 251.805 247.826C251.495 247.463 251.341 246.978 251.341 246.37C251.341 245.858 251.479 245.394 251.757 244.978C252.045 244.551 252.461 244.215 253.005 243.97C253.559 243.724 254.215 243.602 254.973 243.602C256.093 243.602 256.973 243.879 257.613 244.434C258.263 244.988 258.637 245.724 258.733 246.642H256.205C256.162 246.332 256.023 246.087 255.789 245.906C255.565 245.724 255.266 245.634 254.893 245.634C254.573 245.634 254.327 245.698 254.157 245.826C253.986 245.943 253.901 246.108 253.901 246.322C253.901 246.578 254.034 246.77 254.301 246.898C254.578 247.026 255.005 247.154 255.581 247.282C256.242 247.452 256.781 247.623 257.197 247.794C257.613 247.954 257.975 248.22 258.285 248.594C258.605 248.956 258.77 249.447 258.781 250.066C258.781 250.588 258.631 251.058 258.333 251.474C258.045 251.879 257.623 252.199 257.069 252.434C256.525 252.668 255.89 252.786 255.165 252.786ZM265.43 250.338V252.658H264.038C263.046 252.658 262.273 252.418 261.718 251.938C261.164 251.447 260.886 250.652 260.886 249.554V246.002H259.798V243.73H260.886V241.554H263.622V243.73H265.414V246.002H263.622V249.586C263.622 249.852 263.686 250.044 263.814 250.162C263.942 250.279 264.156 250.338 264.454 250.338H265.43ZM275.37 248.05C275.37 248.306 275.354 248.572 275.322 248.85H269.13C269.173 249.404 269.349 249.831 269.658 250.13C269.978 250.418 270.368 250.562 270.826 250.562C271.509 250.562 271.984 250.274 272.25 249.698H275.162C275.013 250.284 274.741 250.812 274.346 251.282C273.962 251.751 273.477 252.119 272.89 252.386C272.304 252.652 271.648 252.786 270.922 252.786C270.048 252.786 269.269 252.599 268.586 252.226C267.904 251.852 267.37 251.319 266.986 250.626C266.602 249.932 266.41 249.122 266.41 248.194C266.41 247.266 266.597 246.455 266.97 245.762C267.354 245.068 267.888 244.535 268.57 244.162C269.253 243.788 270.037 243.602 270.922 243.602C271.786 243.602 272.554 243.783 273.226 244.146C273.898 244.508 274.421 245.026 274.794 245.698C275.178 246.37 275.37 247.154 275.37 248.05ZM272.57 247.33C272.57 246.86 272.41 246.487 272.09 246.21C271.77 245.932 271.37 245.794 270.89 245.794C270.432 245.794 270.042 245.927 269.722 246.194C269.413 246.46 269.221 246.839 269.146 247.33H272.57ZM279.55 245.218C279.87 244.727 280.27 244.343 280.75 244.066C281.23 243.778 281.763 243.634 282.35 243.634V246.53H281.598C280.915 246.53 280.403 246.679 280.062 246.978C279.72 247.266 279.55 247.778 279.55 248.514V252.658H276.814V243.73H279.55V245.218Z" fill="#2F59D3"/>
<rect x="184.302" y="1.02197" width="124.777" height="68.4315" rx="9" fill="#D5DFFF"/>
<rect x="184.302" y="1.02197" width="124.777" height="68.4315" rx="9" stroke="#A0AEE3" stroke-width="2" stroke-dasharray="4 4"/>
<path d="M211.024 21.6218C211.024 22.2725 210.874 22.8698 210.576 23.4138C210.277 23.9471 209.818 24.3791 209.2 24.7098C208.581 25.0405 207.813 25.2058 206.896 25.2058H205.2V29.2378H202.464V18.0058H206.896C207.792 18.0058 208.549 18.1605 209.168 18.4698C209.786 18.7791 210.25 19.2058 210.56 19.7498C210.869 20.2938 211.024 20.9178 211.024 21.6218ZM206.688 23.0298C207.21 23.0298 207.6 22.9071 207.856 22.6618C208.112 22.4165 208.24 22.0698 208.24 21.6218C208.24 21.1738 208.112 20.8271 207.856 20.5818C207.6 20.3365 207.21 20.2138 206.688 20.2138H205.2V23.0298H206.688ZM216.512 29.3658C215.637 29.3658 214.848 29.1791 214.144 28.8058C213.451 28.4325 212.901 27.8991 212.496 27.2058C212.101 26.5125 211.904 25.7018 211.904 24.7738C211.904 23.8565 212.107 23.0511 212.512 22.3578C212.917 21.6538 213.472 21.1151 214.176 20.7418C214.88 20.3685 215.669 20.1818 216.544 20.1818C217.419 20.1818 218.208 20.3685 218.912 20.7418C219.616 21.1151 220.171 21.6538 220.576 22.3578C220.981 23.0511 221.184 23.8565 221.184 24.7738C221.184 25.6911 220.976 26.5018 220.56 27.2058C220.155 27.8991 219.595 28.4325 218.88 28.8058C218.176 29.1791 217.387 29.3658 216.512 29.3658ZM216.512 26.9978C217.035 26.9978 217.477 26.8058 217.84 26.4218C218.213 26.0378 218.4 25.4885 218.4 24.7738C218.4 24.0591 218.219 23.5098 217.856 23.1258C217.504 22.7418 217.067 22.5498 216.544 22.5498C216.011 22.5498 215.568 22.7418 215.216 23.1258C214.864 23.4991 214.688 24.0485 214.688 24.7738C214.688 25.4885 214.859 26.0378 215.2 26.4218C215.552 26.8058 215.989 26.9978 216.512 26.9978ZM235.452 20.3098L233.036 29.2378H230.012L228.604 23.4458L227.148 29.2378H224.14L221.708 20.3098H224.444L225.708 26.6938L227.212 20.3098H230.108L231.628 26.6618L232.876 20.3098H235.452ZM244.911 24.6298C244.911 24.8858 244.895 25.1525 244.863 25.4298H238.671C238.714 25.9845 238.89 26.4111 239.199 26.7098C239.519 26.9978 239.908 27.1418 240.367 27.1418C241.05 27.1418 241.524 26.8538 241.791 26.2778H244.703C244.554 26.8645 244.282 27.3925 243.887 27.8618C243.503 28.3311 243.018 28.6991 242.431 28.9658C241.844 29.2325 241.188 29.3658 240.463 29.3658C239.588 29.3658 238.81 29.1791 238.127 28.8058C237.444 28.4325 236.911 27.8991 236.527 27.2058C236.143 26.5125 235.951 25.7018 235.951 24.7738C235.951 23.8458 236.138 23.0351 236.511 22.3418C236.895 21.6485 237.428 21.1151 238.111 20.7418C238.794 20.3685 239.578 20.1818 240.463 20.1818C241.327 20.1818 242.095 20.3631 242.767 20.7258C243.439 21.0885 243.962 21.6058 244.335 22.2778C244.719 22.9498 244.911 23.7338 244.911 24.6298ZM242.111 23.9098C242.111 23.4405 241.951 23.0671 241.631 22.7898C241.311 22.5125 240.911 22.3738 240.431 22.3738C239.972 22.3738 239.583 22.5071 239.263 22.7738C238.954 23.0405 238.762 23.4191 238.687 23.9098H242.111ZM249.09 21.7978C249.41 21.3071 249.81 20.9231 250.29 20.6458C250.77 20.3578 251.304 20.2138 251.89 20.2138V23.1098H251.138C250.456 23.1098 249.944 23.2591 249.602 23.5578C249.261 23.8458 249.09 24.3578 249.09 25.0938V29.2378H246.354V20.3098H249.09V21.7978ZM258.174 26.9178V29.2378H256.782C255.79 29.2378 255.017 28.9978 254.462 28.5178C253.907 28.0271 253.63 27.2325 253.63 26.1338V22.5818H252.542V20.3098H253.63V18.1338H256.366V20.3098H258.158V22.5818H256.366V26.1658C256.366 26.4325 256.43 26.6245 256.558 26.7418C256.686 26.8591 256.899 26.9178 257.198 26.9178H258.174ZM262.434 21.7978C262.754 21.3071 263.154 20.9231 263.634 20.6458C264.114 20.3578 264.647 20.2138 265.234 20.2138V23.1098H264.482C263.799 23.1098 263.287 23.2591 262.946 23.5578C262.605 23.8458 262.434 24.3578 262.434 25.0938V29.2378H259.698V20.3098H262.434V21.7978ZM265.998 24.7578C265.998 23.8405 266.168 23.0351 266.51 22.3418C266.862 21.6485 267.336 21.1151 267.934 20.7418C268.531 20.3685 269.198 20.1818 269.934 20.1818C270.563 20.1818 271.112 20.3098 271.582 20.5658C272.062 20.8218 272.43 21.1578 272.686 21.5738V20.3098H275.422V29.2378H272.686V27.9738C272.419 28.3898 272.046 28.7258 271.566 28.9818C271.096 29.2378 270.547 29.3658 269.918 29.3658C269.192 29.3658 268.531 29.1791 267.934 28.8058C267.336 28.4218 266.862 27.8831 266.51 27.1898C266.168 26.4858 265.998 25.6751 265.998 24.7578ZM272.686 24.7738C272.686 24.0911 272.494 23.5525 272.11 23.1578C271.736 22.7631 271.278 22.5658 270.734 22.5658C270.19 22.5658 269.726 22.7631 269.342 23.1578C268.968 23.5418 268.782 24.0751 268.782 24.7578C268.782 25.4405 268.968 25.9845 269.342 26.3898C269.726 26.7845 270.19 26.9818 270.734 26.9818C271.278 26.9818 271.736 26.7845 272.11 26.3898C272.494 25.9951 272.686 25.4565 272.686 24.7738ZM278.777 19.3818C278.297 19.3818 277.903 19.2431 277.593 18.9658C277.295 18.6778 277.145 18.3258 277.145 17.9098C277.145 17.4831 277.295 17.1311 277.593 16.8538C277.903 16.5658 278.297 16.4218 278.777 16.4218C279.247 16.4218 279.631 16.5658 279.929 16.8538C280.239 17.1311 280.393 17.4831 280.393 17.9098C280.393 18.3258 280.239 18.6778 279.929 18.9658C279.631 19.2431 279.247 19.3818 278.777 19.3818ZM280.137 20.3098V29.2378H277.401V20.3098H280.137ZM287.56 20.2138C288.605 20.2138 289.437 20.5551 290.056 21.2378C290.685 21.9098 291 22.8378 291 24.0218V29.2378H288.28V24.3898C288.28 23.7925 288.125 23.3285 287.816 22.9978C287.507 22.6671 287.091 22.5018 286.568 22.5018C286.045 22.5018 285.629 22.6671 285.32 22.9978C285.011 23.3285 284.856 23.7925 284.856 24.3898V29.2378H282.12V20.3098H284.856V21.4938C285.133 21.0991 285.507 20.7898 285.976 20.5658C286.445 20.3311 286.973 20.2138 287.56 20.2138ZM219.336 42.0058C220.52 42.0058 221.554 42.2405 222.44 42.7098C223.325 43.1791 224.008 43.8405 224.488 44.6938C224.978 45.5365 225.224 46.5125 225.224 47.6218C225.224 48.7205 224.978 49.6965 224.488 50.5498C224.008 51.4031 223.32 52.0645 222.424 52.5338C221.538 53.0031 220.509 53.2378 219.336 53.2378H215.128V42.0058H219.336ZM219.16 50.8698C220.194 50.8698 221 50.5871 221.576 50.0218C222.152 49.4565 222.44 48.6565 222.44 47.6218C222.44 46.5871 222.152 45.7818 221.576 45.2058C221 44.6298 220.194 44.3418 219.16 44.3418H217.864V50.8698H219.16ZM230.817 53.3658C229.942 53.3658 229.153 53.1791 228.449 52.8058C227.755 52.4325 227.206 51.8991 226.801 51.2058C226.406 50.5125 226.209 49.7018 226.209 48.7738C226.209 47.8565 226.411 47.0511 226.817 46.3578C227.222 45.6538 227.777 45.1151 228.481 44.7418C229.185 44.3685 229.974 44.1818 230.849 44.1818C231.723 44.1818 232.513 44.3685 233.217 44.7418C233.921 45.1151 234.475 45.6538 234.881 46.3578C235.286 47.0511 235.489 47.8565 235.489 48.7738C235.489 49.6911 235.281 50.5018 234.865 51.2058C234.459 51.8991 233.899 52.4325 233.185 52.8058C232.481 53.1791 231.691 53.3658 230.817 53.3658ZM230.817 50.9978C231.339 50.9978 231.782 50.8058 232.145 50.4218C232.518 50.0378 232.705 49.4885 232.705 48.7738C232.705 48.0591 232.523 47.5098 232.161 47.1258C231.809 46.7418 231.371 46.5498 230.849 46.5498C230.315 46.5498 229.873 46.7418 229.521 47.1258C229.169 47.4991 228.993 48.0485 228.993 48.7738C228.993 49.4885 229.163 50.0378 229.505 50.4218C229.857 50.8058 230.294 50.9978 230.817 50.9978ZM248.332 44.2138C249.442 44.2138 250.322 44.5498 250.972 45.2218C251.634 45.8938 251.964 46.8271 251.964 48.0218V53.2378H249.244V48.3898C249.244 47.8138 249.09 47.3711 248.78 47.0618C248.482 46.7418 248.066 46.5818 247.532 46.5818C246.999 46.5818 246.578 46.7418 246.268 47.0618C245.97 47.3711 245.82 47.8138 245.82 48.3898V53.2378H243.1V48.3898C243.1 47.8138 242.946 47.3711 242.636 47.0618C242.338 46.7418 241.922 46.5818 241.388 46.5818C240.855 46.5818 240.434 46.7418 240.124 47.0618C239.826 47.3711 239.676 47.8138 239.676 48.3898V53.2378H236.94V44.3098H239.676V45.4298C239.954 45.0565 240.316 44.7631 240.764 44.5498C241.212 44.3258 241.719 44.2138 242.284 44.2138C242.956 44.2138 243.554 44.3578 244.076 44.6458C244.61 44.9338 245.026 45.3445 245.324 45.8778C245.634 45.3871 246.055 44.9871 246.588 44.6778C247.122 44.3685 247.703 44.2138 248.332 44.2138ZM253.334 48.7578C253.334 47.8405 253.504 47.0351 253.846 46.3418C254.198 45.6485 254.672 45.1151 255.27 44.7418C255.867 44.3685 256.534 44.1818 257.27 44.1818C257.899 44.1818 258.448 44.3098 258.918 44.5658C259.398 44.8218 259.766 45.1578 260.022 45.5738V44.3098H262.758V53.2378H260.022V51.9738C259.755 52.3898 259.382 52.7258 258.902 52.9818C258.432 53.2378 257.883 53.3658 257.254 53.3658C256.528 53.3658 255.867 53.1791 255.27 52.8058C254.672 52.4218 254.198 51.8831 253.846 51.1898C253.504 50.4858 253.334 49.6751 253.334 48.7578ZM260.022 48.7738C260.022 48.0911 259.83 47.5525 259.446 47.1578C259.072 46.7631 258.614 46.5658 258.07 46.5658C257.526 46.5658 257.062 46.7631 256.678 47.1578C256.304 47.5418 256.118 48.0751 256.118 48.7578C256.118 49.4405 256.304 49.9845 256.678 50.3898C257.062 50.7845 257.526 50.9818 258.07 50.9818C258.614 50.9818 259.072 50.7845 259.446 50.3898C259.83 49.9951 260.022 49.4565 260.022 48.7738ZM266.113 43.3818C265.633 43.3818 265.238 43.2431 264.929 42.9658C264.63 42.6778 264.481 42.3258 264.481 41.9098C264.481 41.4831 264.63 41.1311 264.929 40.8538C265.238 40.5658 265.633 40.4218 266.113 40.4218C266.582 40.4218 266.966 40.5658 267.265 40.8538C267.574 41.1311 267.729 41.4831 267.729 41.9098C267.729 42.3258 267.574 42.6778 267.265 42.9658C266.966 43.2431 266.582 43.3818 266.113 43.3818ZM267.473 44.3098V53.2378H264.737V44.3098H267.473ZM274.896 44.2138C275.941 44.2138 276.773 44.5551 277.392 45.2378C278.021 45.9098 278.336 46.8378 278.336 48.0218V53.2378H275.616V48.3898C275.616 47.7925 275.461 47.3285 275.152 46.9978C274.843 46.6671 274.427 46.5018 273.904 46.5018C273.381 46.5018 272.965 46.6671 272.656 46.9978C272.347 47.3285 272.192 47.7925 272.192 48.3898V53.2378H269.456V44.3098H272.192V45.4938C272.469 45.0991 272.843 44.7898 273.312 44.5658C273.781 44.3311 274.309 44.2138 274.896 44.2138Z" fill="#7A92EE"/>
<path d="M132.093 26.8187C132.093 26.0707 132.265 25.3997 132.61 24.8057C132.962 24.2117 133.435 23.7497 134.029 23.4197C134.63 23.0824 135.286 22.9137 135.998 22.9137C136.812 22.9137 137.534 23.1154 138.165 23.5187C138.803 23.9147 139.265 24.4794 139.551 25.2127H138.044C137.846 24.8094 137.571 24.5087 137.219 24.3107C136.867 24.1127 136.46 24.0137 135.998 24.0137C135.492 24.0137 135.041 24.1274 134.645 24.3547C134.249 24.582 133.937 24.9084 133.71 25.3337C133.49 25.759 133.38 26.254 133.38 26.8187C133.38 27.3834 133.49 27.8784 133.71 28.3037C133.937 28.729 134.249 29.059 134.645 29.2937C135.041 29.521 135.492 29.6347 135.998 29.6347C136.46 29.6347 136.867 29.5357 137.219 29.3377C137.571 29.1397 137.846 28.839 138.044 28.4357H139.551C139.265 29.169 138.803 29.7337 138.165 30.1297C137.534 30.5257 136.812 30.7237 135.998 30.7237C135.279 30.7237 134.623 30.5587 134.029 30.2287C133.435 29.8914 132.962 29.4257 132.61 28.8317C132.265 28.2377 132.093 27.5667 132.093 26.8187ZM145.627 29.0957H142.426L141.876 30.6577H140.567L143.306 23.0017H144.758L147.497 30.6577H146.177L145.627 29.0957ZM145.275 28.0727L144.032 24.5197L142.778 28.0727H145.275ZM154.969 30.6577H153.715L149.942 24.9487V30.6577H148.688V23.0017H149.942L153.715 28.6997V23.0017H154.969V30.6577ZM163.565 26.7307C163.976 26.804 164.324 27.0204 164.61 27.3797C164.896 27.739 165.039 28.146 165.039 28.6007C165.039 28.9894 164.937 29.3414 164.731 29.6567C164.533 29.9647 164.244 30.2104 163.862 30.3937C163.481 30.5697 163.037 30.6577 162.531 30.6577H159.473V23.0127H162.388C162.909 23.0127 163.356 23.1007 163.73 23.2767C164.104 23.4527 164.387 23.691 164.577 23.9917C164.768 24.285 164.863 24.615 164.863 24.9817C164.863 25.4217 164.746 25.7884 164.511 26.0817C164.277 26.375 163.961 26.5914 163.565 26.7307ZM160.727 26.2247H162.278C162.689 26.2247 163.008 26.133 163.235 25.9497C163.47 25.759 163.587 25.4877 163.587 25.1357C163.587 24.791 163.47 24.5234 163.235 24.3327C163.008 24.1347 162.689 24.0357 162.278 24.0357H160.727V26.2247ZM162.421 29.6347C162.847 29.6347 163.18 29.532 163.422 29.3267C163.664 29.1214 163.785 28.8354 163.785 28.4687C163.785 28.0947 163.657 27.7977 163.4 27.5777C163.144 27.3577 162.803 27.2477 162.377 27.2477H160.727V29.6347H162.421ZM171.891 24.5967V30.6577H170.637V29.9427C170.439 30.192 170.179 30.39 169.856 30.5367C169.541 30.676 169.203 30.7457 168.844 30.7457C168.367 30.7457 167.938 30.6467 167.557 30.4487C167.183 30.2507 166.886 29.9574 166.666 29.5687C166.453 29.18 166.347 28.7107 166.347 28.1607V24.5967H167.59V27.9737C167.59 28.5164 167.726 28.9344 167.997 29.2277C168.268 29.5137 168.639 29.6567 169.108 29.6567C169.577 29.6567 169.948 29.5137 170.219 29.2277C170.498 28.9344 170.637 28.5164 170.637 27.9737V24.5967H171.891ZM175.746 30.7567C175.269 30.7567 174.84 30.6724 174.459 30.5037C174.085 30.3277 173.788 30.093 173.568 29.7997C173.348 29.499 173.23 29.1654 173.216 28.7987H174.514C174.536 29.0554 174.657 29.2717 174.877 29.4477C175.104 29.6164 175.386 29.7007 175.724 29.7007C176.076 29.7007 176.347 29.6347 176.538 29.5027C176.736 29.3634 176.835 29.1874 176.835 28.9747C176.835 28.7474 176.725 28.5787 176.505 28.4687C176.292 28.3587 175.951 28.2377 175.482 28.1057C175.027 27.981 174.657 27.86 174.371 27.7427C174.085 27.6254 173.835 27.4457 173.623 27.2037C173.417 26.9617 173.315 26.6427 173.315 26.2467C173.315 25.924 173.41 25.6307 173.601 25.3667C173.791 25.0954 174.063 24.8827 174.415 24.7287C174.774 24.5747 175.185 24.4977 175.647 24.4977C176.336 24.4977 176.89 24.6737 177.308 25.0257C177.733 25.3704 177.96 25.8434 177.99 26.4447H176.736C176.714 26.1734 176.604 25.957 176.406 25.7957C176.208 25.6344 175.94 25.5537 175.603 25.5537C175.273 25.5537 175.02 25.616 174.844 25.7407C174.668 25.8654 174.58 26.0304 174.58 26.2357C174.58 26.397 174.638 26.5327 174.756 26.6427C174.873 26.7527 175.016 26.8407 175.185 26.9067C175.353 26.9654 175.603 27.0424 175.933 27.1377C176.373 27.255 176.732 27.376 177.011 27.5007C177.297 27.618 177.542 27.794 177.748 28.0287C177.953 28.2634 178.059 28.575 178.067 28.9637C178.067 29.3084 177.971 29.6164 177.781 29.8877C177.59 30.159 177.319 30.3717 176.967 30.5257C176.622 30.6797 176.215 30.7567 175.746 30.7567Z" fill="#7A92EE"/>
<path d="M35.0925 147.819C35.0925 147.071 35.2649 146.4 35.6095 145.806C35.9615 145.212 36.4345 144.75 37.0285 144.42C37.6299 144.082 38.2862 143.914 38.9975 143.914C39.8115 143.914 40.5339 144.115 41.1645 144.519C41.8025 144.915 42.2645 145.479 42.5505 146.213H41.0435C40.8455 145.809 40.5705 145.509 40.2185 145.311C39.8665 145.113 39.4595 145.014 38.9975 145.014C38.4915 145.014 38.0405 145.127 37.6445 145.355C37.2485 145.582 36.9369 145.908 36.7095 146.334C36.4895 146.759 36.3795 147.254 36.3795 147.819C36.3795 148.383 36.4895 148.878 36.7095 149.304C36.9369 149.729 37.2485 150.059 37.6445 150.294C38.0405 150.521 38.4915 150.635 38.9975 150.635C39.4595 150.635 39.8665 150.536 40.2185 150.338C40.5705 150.14 40.8455 149.839 41.0435 149.436H42.5505C42.2645 150.169 41.8025 150.734 41.1645 151.13C40.5339 151.526 39.8115 151.724 38.9975 151.724C38.2789 151.724 37.6225 151.559 37.0285 151.229C36.4345 150.891 35.9615 150.426 35.6095 149.832C35.2649 149.238 35.0925 148.567 35.0925 147.819ZM48.6274 150.096H45.4264L44.8764 151.658H43.5674L46.3064 144.002H47.7584L50.4974 151.658H49.1774L48.6274 150.096ZM48.2754 149.073L47.0324 145.52L45.7784 149.073H48.2754ZM57.9693 151.658H56.7153L52.9423 145.949V151.658H51.6883V144.002H52.9423L56.7153 149.7V144.002H57.9693V151.658ZM66.5654 147.731C66.9761 147.804 67.3244 148.02 67.6104 148.38C67.8964 148.739 68.0394 149.146 68.0394 149.601C68.0394 149.989 67.9368 150.341 67.7314 150.657C67.5334 150.965 67.2438 151.21 66.8624 151.394C66.4811 151.57 66.0374 151.658 65.5314 151.658H62.4734V144.013H65.3884C65.9091 144.013 66.3564 144.101 66.7304 144.277C67.1044 144.453 67.3868 144.691 67.5774 144.992C67.7681 145.285 67.8634 145.615 67.8634 145.982C67.8634 146.422 67.7461 146.788 67.5114 147.082C67.2768 147.375 66.9614 147.591 66.5654 147.731ZM63.7274 147.225H65.2784C65.6891 147.225 66.0081 147.133 66.2354 146.95C66.4701 146.759 66.5874 146.488 66.5874 146.136C66.5874 145.791 66.4701 145.523 66.2354 145.333C66.0081 145.135 65.6891 145.036 65.2784 145.036H63.7274V147.225ZM65.4214 150.635C65.8468 150.635 66.1804 150.532 66.4224 150.327C66.6644 150.121 66.7854 149.835 66.7854 149.469C66.7854 149.095 66.6571 148.798 66.4004 148.578C66.1438 148.358 65.8028 148.248 65.3774 148.248H63.7274V150.635H65.4214ZM74.8911 145.597V151.658H73.6371V150.943C73.4391 151.192 73.1788 151.39 72.8561 151.537C72.5408 151.676 72.2035 151.746 71.8441 151.746C71.3675 151.746 70.9385 151.647 70.5571 151.449C70.1831 151.251 69.8861 150.957 69.6661 150.569C69.4535 150.18 69.3471 149.711 69.3471 149.161V145.597H70.5901V148.974C70.5901 149.516 70.7258 149.934 70.9971 150.228C71.2685 150.514 71.6388 150.657 72.1081 150.657C72.5775 150.657 72.9478 150.514 73.2191 150.228C73.4978 149.934 73.6371 149.516 73.6371 148.974V145.597H74.8911ZM78.7457 151.757C78.269 151.757 77.84 151.672 77.4587 151.504C77.0847 151.328 76.7877 151.093 76.5677 150.8C76.3477 150.499 76.2304 150.165 76.2157 149.799H77.5137C77.5357 150.055 77.6567 150.272 77.8767 150.448C78.104 150.616 78.3864 150.701 78.7237 150.701C79.0757 150.701 79.347 150.635 79.5377 150.503C79.7357 150.363 79.8347 150.187 79.8347 149.975C79.8347 149.747 79.7247 149.579 79.5047 149.469C79.292 149.359 78.951 149.238 78.4817 149.106C78.027 148.981 77.6567 148.86 77.3707 148.743C77.0847 148.625 76.8354 148.446 76.6227 148.204C76.4174 147.962 76.3147 147.643 76.3147 147.247C76.3147 146.924 76.41 146.631 76.6007 146.367C76.7914 146.095 77.0627 145.883 77.4147 145.729C77.774 145.575 78.1847 145.498 78.6467 145.498C79.336 145.498 79.8897 145.674 80.3077 146.026C80.733 146.37 80.9604 146.843 80.9897 147.445H79.7357C79.7137 147.173 79.6037 146.957 79.4057 146.796C79.2077 146.634 78.94 146.554 78.6027 146.554C78.2727 146.554 78.0197 146.616 77.8437 146.741C77.6677 146.865 77.5797 147.03 77.5797 147.236C77.5797 147.397 77.6384 147.533 77.7557 147.643C77.873 147.753 78.016 147.841 78.1847 147.907C78.3534 147.965 78.6027 148.042 78.9327 148.138C79.3727 148.255 79.732 148.376 80.0107 148.501C80.2967 148.618 80.5424 148.794 80.7477 149.029C80.953 149.263 81.0594 149.575 81.0667 149.964C81.0667 150.308 80.9714 150.616 80.7807 150.888C80.59 151.159 80.3187 151.372 79.9667 151.526C79.622 151.68 79.215 151.757 78.7457 151.757Z" fill="#7A92EE"/>
<path d="M210.2 187.025V189.269H212.84V190.292H210.2V192.635H213.17V193.658H208.946V186.002H213.17V187.025H210.2ZM216.177 188.62V191.975C216.177 192.202 216.228 192.367 216.331 192.47C216.441 192.565 216.624 192.613 216.881 192.613H217.651V193.658H216.661C216.096 193.658 215.664 193.526 215.363 193.262C215.062 192.998 214.912 192.569 214.912 191.975V188.62H214.197V187.597H214.912V186.09H216.177V187.597H217.651V188.62H216.177ZM221.942 187.498C222.404 187.498 222.815 187.597 223.174 187.795C223.541 187.993 223.827 188.286 224.032 188.675C224.245 189.063 224.351 189.533 224.351 190.083V193.658H223.108V190.27C223.108 189.727 222.972 189.313 222.701 189.027C222.43 188.733 222.059 188.587 221.59 188.587C221.121 188.587 220.747 188.733 220.468 189.027C220.197 189.313 220.061 189.727 220.061 190.27V193.658H218.807V185.518H220.061V188.301C220.274 188.044 220.541 187.846 220.864 187.707C221.194 187.567 221.553 187.498 221.942 187.498ZM231.505 190.479C231.505 190.706 231.491 190.911 231.461 191.095H226.83C226.867 191.579 227.047 191.967 227.369 192.261C227.692 192.554 228.088 192.701 228.557 192.701C229.232 192.701 229.709 192.418 229.987 191.854H231.34C231.157 192.411 230.823 192.869 230.339 193.229C229.863 193.581 229.269 193.757 228.557 193.757C227.978 193.757 227.457 193.628 226.995 193.372C226.541 193.108 226.181 192.741 225.917 192.272C225.661 191.795 225.532 191.245 225.532 190.622C225.532 189.998 225.657 189.452 225.906 188.983C226.163 188.506 226.519 188.139 226.973 187.883C227.435 187.626 227.963 187.498 228.557 187.498C229.129 187.498 229.639 187.622 230.086 187.872C230.534 188.121 230.882 188.473 231.131 188.928C231.381 189.375 231.505 189.892 231.505 190.479ZM230.196 190.083C230.189 189.621 230.024 189.25 229.701 188.972C229.379 188.693 228.979 188.554 228.502 188.554C228.07 188.554 227.699 188.693 227.391 188.972C227.083 189.243 226.9 189.613 226.841 190.083H230.196ZM233.994 188.477C234.177 188.169 234.419 187.93 234.72 187.762C235.028 187.586 235.391 187.498 235.809 187.498V188.796H235.49C234.998 188.796 234.624 188.92 234.368 189.17C234.118 189.419 233.994 189.852 233.994 190.468V193.658H232.74V187.597H233.994V188.477ZM240.019 187.498C240.496 187.498 240.921 187.597 241.295 187.795C241.677 187.993 241.974 188.286 242.186 188.675C242.399 189.063 242.505 189.533 242.505 190.083V193.658H241.262V190.27C241.262 189.727 241.127 189.313 240.855 189.027C240.584 188.733 240.214 188.587 239.744 188.587C239.275 188.587 238.901 188.733 238.622 189.027C238.351 189.313 238.215 189.727 238.215 190.27V193.658H236.961V187.597H238.215V188.29C238.421 188.04 238.681 187.846 238.996 187.707C239.319 187.567 239.66 187.498 240.019 187.498ZM249.66 190.479C249.66 190.706 249.645 190.911 249.616 191.095H244.985C245.021 191.579 245.201 191.967 245.524 192.261C245.846 192.554 246.242 192.701 246.712 192.701C247.386 192.701 247.863 192.418 248.142 191.854H249.495C249.311 192.411 248.978 192.869 248.494 193.229C248.017 193.581 247.423 193.757 246.712 193.757C246.132 193.757 245.612 193.628 245.15 193.372C244.695 193.108 244.336 192.741 244.072 192.272C243.815 191.795 243.687 191.245 243.687 190.622C243.687 189.998 243.811 189.452 244.061 188.983C244.317 188.506 244.673 188.139 245.128 187.883C245.59 187.626 246.118 187.498 246.712 187.498C247.284 187.498 247.793 187.622 248.241 187.872C248.688 188.121 249.036 188.473 249.286 188.928C249.535 189.375 249.66 189.892 249.66 190.479ZM248.351 190.083C248.343 189.621 248.178 189.25 247.856 188.972C247.533 188.693 247.133 188.554 246.657 188.554C246.224 188.554 245.854 188.693 245.546 188.972C245.238 189.243 245.054 189.613 244.996 190.083H248.351ZM252.357 188.62V191.975C252.357 192.202 252.408 192.367 252.511 192.47C252.621 192.565 252.804 192.613 253.061 192.613H253.831V193.658H252.841C252.276 193.658 251.844 193.526 251.543 193.262C251.242 192.998 251.092 192.569 251.092 191.975V188.62H250.377V187.597H251.092V186.09H252.357V187.597H253.831V188.62H252.357Z" fill="#7A92EE"/>
<line x1="126.957" y1="34.7378" x2="183.302" y2="34.7378" stroke="#7A92EE"/>
<line x1="155.629" y1="35.2378" x2="155.629" y2="91.583" stroke="#7A92EE"/>
<line x1="155.629" y1="185.961" x2="155.629" y2="286.678" stroke="#7A92EE"/>
<line x1="64.2842" y1="268.658" x2="64.2842" y2="311.658" stroke="#FF768D" stroke-dasharray="4 4"/>
<line x1="257.284" y1="266.658" x2="257.284" y2="311.658" stroke="#FF768D" stroke-dasharray="4 4"/>
<path d="M106.532 135.955L63.9207 167.649L63.9207 200.752" stroke="#7A92EE"/>
<path d="M194.759 164.658L257.759 183.245L257.759 202.658" stroke="#7A92EE"/>
<circle cx="155.129" cy="135.955" r="49.5064" fill="#2F59D3" stroke="#2F59D3"/>
<path d="M124.782 122.967C124.782 121.858 125.022 120.871 125.502 120.007C125.982 119.133 126.649 118.455 127.502 117.975C128.366 117.485 129.342 117.239 130.43 117.239C131.764 117.239 132.905 117.591 133.854 118.295C134.804 118.999 135.438 119.959 135.758 121.175H132.75C132.526 120.706 132.206 120.349 131.79 120.103C131.385 119.858 130.921 119.735 130.398 119.735C129.556 119.735 128.873 120.029 128.35 120.615C127.828 121.202 127.566 121.986 127.566 122.967C127.566 123.949 127.828 124.733 128.35 125.319C128.873 125.906 129.556 126.199 130.398 126.199C130.921 126.199 131.385 126.077 131.79 125.831C132.206 125.586 132.526 125.229 132.75 124.759H135.758C135.438 125.975 134.804 126.935 133.854 127.639C132.905 128.333 131.764 128.679 130.43 128.679C129.342 128.679 128.366 128.439 127.502 127.959C126.649 127.469 125.982 126.791 125.502 125.927C125.022 125.063 124.782 124.077 124.782 122.967ZM145.85 123.991C145.85 124.247 145.834 124.514 145.802 124.791H139.61C139.653 125.346 139.829 125.773 140.138 126.071C140.458 126.359 140.847 126.503 141.306 126.503C141.989 126.503 142.463 126.215 142.73 125.639H145.642C145.493 126.226 145.221 126.754 144.826 127.223C144.442 127.693 143.957 128.061 143.37 128.327C142.783 128.594 142.127 128.727 141.402 128.727C140.527 128.727 139.749 128.541 139.066 128.167C138.383 127.794 137.85 127.261 137.466 126.567C137.082 125.874 136.89 125.063 136.89 124.135C136.89 123.207 137.077 122.397 137.45 121.703C137.834 121.01 138.367 120.477 139.05 120.103C139.733 119.73 140.517 119.543 141.402 119.543C142.266 119.543 143.034 119.725 143.706 120.087C144.378 120.45 144.901 120.967 145.274 121.639C145.658 122.311 145.85 123.095 145.85 123.991ZM143.05 123.271C143.05 122.802 142.89 122.429 142.57 122.151C142.25 121.874 141.85 121.735 141.37 121.735C140.911 121.735 140.522 121.869 140.202 122.135C139.893 122.402 139.701 122.781 139.626 123.271H143.05ZM152.733 119.575C153.779 119.575 154.611 119.917 155.229 120.599C155.859 121.271 156.173 122.199 156.173 123.383V128.599H153.453V123.751C153.453 123.154 153.299 122.69 152.989 122.359C152.68 122.029 152.264 121.863 151.741 121.863C151.219 121.863 150.803 122.029 150.493 122.359C150.184 122.69 150.029 123.154 150.029 123.751V128.599H147.293V119.671H150.029V120.855C150.307 120.461 150.68 120.151 151.149 119.927C151.619 119.693 152.147 119.575 152.733 119.575ZM163.051 126.279V128.599H161.659C160.667 128.599 159.893 128.359 159.339 127.879C158.784 127.389 158.507 126.594 158.507 125.495V121.943H157.419V119.671H158.507V117.495H161.243V119.671H163.035V121.943H161.243V125.527C161.243 125.794 161.307 125.986 161.435 126.103C161.563 126.221 161.776 126.279 162.075 126.279H163.051ZM167.311 121.159C167.631 120.669 168.031 120.285 168.511 120.007C168.991 119.719 169.524 119.575 170.111 119.575V122.471H169.359C168.676 122.471 168.164 122.621 167.823 122.919C167.481 123.207 167.311 123.719 167.311 124.455V128.599H164.575V119.671H167.311V121.159ZM170.874 124.119C170.874 123.202 171.045 122.397 171.386 121.703C171.738 121.01 172.213 120.477 172.81 120.103C173.408 119.73 174.074 119.543 174.81 119.543C175.44 119.543 175.989 119.671 176.458 119.927C176.938 120.183 177.306 120.519 177.562 120.935V119.671H180.298V128.599H177.562V127.335C177.296 127.751 176.922 128.087 176.442 128.343C175.973 128.599 175.424 128.727 174.794 128.727C174.069 128.727 173.408 128.541 172.81 128.167C172.213 127.783 171.738 127.245 171.386 126.551C171.045 125.847 170.874 125.037 170.874 124.119ZM177.562 124.135C177.562 123.453 177.37 122.914 176.986 122.519C176.613 122.125 176.154 121.927 175.61 121.927C175.066 121.927 174.602 122.125 174.218 122.519C173.845 122.903 173.658 123.437 173.658 124.119C173.658 124.802 173.845 125.346 174.218 125.751C174.602 126.146 175.066 126.343 175.61 126.343C176.154 126.343 176.613 126.146 176.986 125.751C177.37 125.357 177.562 124.818 177.562 124.135ZM185.014 116.759V128.599H182.278V116.759H185.014ZM126.46 144.919C126.258 144.546 125.964 144.263 125.58 144.071C125.207 143.869 124.764 143.767 124.252 143.767C123.367 143.767 122.658 144.061 122.124 144.647C121.591 145.223 121.324 145.997 121.324 146.967C121.324 148.002 121.602 148.813 122.156 149.399C122.722 149.975 123.495 150.263 124.476 150.263C125.148 150.263 125.714 150.093 126.172 149.751C126.642 149.41 126.983 148.919 127.196 148.279H123.724V146.263H129.676V148.807C129.474 149.49 129.127 150.125 128.636 150.711C128.156 151.298 127.543 151.773 126.796 152.135C126.05 152.498 125.207 152.679 124.268 152.679C123.159 152.679 122.167 152.439 121.292 151.959C120.428 151.469 119.751 150.791 119.26 149.927C118.78 149.063 118.54 148.077 118.54 146.967C118.54 145.858 118.78 144.871 119.26 144.007C119.751 143.133 120.428 142.455 121.292 141.975C122.156 141.485 123.143 141.239 124.252 141.239C125.596 141.239 126.727 141.565 127.644 142.215C128.572 142.866 129.186 143.767 129.484 144.919H126.46ZM130.648 148.119C130.648 147.202 130.818 146.397 131.16 145.703C131.512 145.01 131.986 144.477 132.584 144.103C133.181 143.73 133.848 143.543 134.584 143.543C135.213 143.543 135.762 143.671 136.232 143.927C136.712 144.183 137.08 144.519 137.336 144.935V143.671H140.072V152.599H137.336V151.335C137.069 151.751 136.696 152.087 136.216 152.343C135.746 152.599 135.197 152.727 134.568 152.727C133.842 152.727 133.181 152.541 132.584 152.167C131.986 151.783 131.512 151.245 131.16 150.551C130.818 149.847 130.648 149.037 130.648 148.119ZM137.336 148.135C137.336 147.453 137.144 146.914 136.76 146.519C136.386 146.125 135.928 145.927 135.384 145.927C134.84 145.927 134.376 146.125 133.992 146.519C133.618 146.903 133.432 147.437 133.432 148.119C133.432 148.802 133.618 149.346 133.992 149.751C134.376 150.146 134.84 150.343 135.384 150.343C135.928 150.343 136.386 150.146 136.76 149.751C137.144 149.357 137.336 148.818 137.336 148.135ZM147.027 150.279V152.599H145.635C144.643 152.599 143.87 152.359 143.315 151.879C142.76 151.389 142.483 150.594 142.483 149.495V145.943H141.395V143.671H142.483V141.495H145.219V143.671H147.011V145.943H145.219V149.527C145.219 149.794 145.283 149.986 145.411 150.103C145.539 150.221 145.752 150.279 146.051 150.279H147.027ZM156.967 147.991C156.967 148.247 156.951 148.514 156.919 148.791H150.727C150.77 149.346 150.946 149.773 151.255 150.071C151.575 150.359 151.964 150.503 152.423 150.503C153.106 150.503 153.58 150.215 153.847 149.639H156.759C156.61 150.226 156.338 150.754 155.943 151.223C155.559 151.693 155.074 152.061 154.487 152.327C153.9 152.594 153.244 152.727 152.519 152.727C151.644 152.727 150.866 152.541 150.183 152.167C149.5 151.794 148.967 151.261 148.583 150.567C148.199 149.874 148.007 149.063 148.007 148.135C148.007 147.207 148.194 146.397 148.567 145.703C148.951 145.01 149.484 144.477 150.167 144.103C150.85 143.73 151.634 143.543 152.519 143.543C153.383 143.543 154.151 143.725 154.823 144.087C155.495 144.45 156.018 144.967 156.391 145.639C156.775 146.311 156.967 147.095 156.967 147.991ZM154.167 147.271C154.167 146.802 154.007 146.429 153.687 146.151C153.367 145.874 152.967 145.735 152.487 145.735C152.028 145.735 151.639 145.869 151.319 146.135C151.01 146.402 150.818 146.781 150.743 147.271H154.167ZM171.226 143.671L168.81 152.599H165.786L164.378 146.807L162.922 152.599H159.914L157.482 143.671H160.218L161.482 150.055L162.986 143.671H165.882L167.402 150.023L168.65 143.671H171.226ZM171.726 148.119C171.726 147.202 171.896 146.397 172.238 145.703C172.59 145.01 173.064 144.477 173.662 144.103C174.259 143.73 174.926 143.543 175.662 143.543C176.291 143.543 176.84 143.671 177.31 143.927C177.79 144.183 178.158 144.519 178.414 144.935V143.671H181.15V152.599H178.414V151.335C178.147 151.751 177.774 152.087 177.294 152.343C176.824 152.599 176.275 152.727 175.646 152.727C174.92 152.727 174.259 152.541 173.662 152.167C173.064 151.783 172.59 151.245 172.238 150.551C171.896 149.847 171.726 149.037 171.726 148.119ZM178.414 148.135C178.414 147.453 178.222 146.914 177.838 146.519C177.464 146.125 177.006 145.927 176.462 145.927C175.918 145.927 175.454 146.125 175.07 146.519C174.696 146.903 174.51 147.437 174.51 148.119C174.51 148.802 174.696 149.346 175.07 149.751C175.454 150.146 175.918 150.343 176.462 150.343C177.006 150.343 177.464 150.146 177.838 149.751C178.222 149.357 178.414 148.818 178.414 148.135ZM192.249 143.671L186.649 156.839H183.705L185.753 152.295L182.121 143.671H185.177L187.241 149.255L189.289 143.671H192.249Z" fill="white"/>
</svg>
