<svg width="349" height="380" viewBox="0 0 349 380" fill="none" xmlns="http://www.w3.org/2000/svg">
<rect x="14.0847" y="100" width="146" height="68" rx="9" fill="#D5DFFF"/>
<rect x="14.0847" y="100" width="146" height="68" rx="9" stroke="#A0AEE3" stroke-width="2" stroke-dasharray="4 4"/>
<path d="M64.5344 118.172V120.09H61.9304V128H59.5364V120.09H56.9324V118.172H64.5344ZM70.5379 120.104C71.4339 120.104 72.1526 120.403 72.6939 121C73.2353 121.588 73.5059 122.4 73.5059 123.436V128H71.1259V123.758C71.1259 123.235 70.9906 122.829 70.7199 122.54C70.4493 122.251 70.0853 122.106 69.6279 122.106C69.1706 122.106 68.8066 122.251 68.5359 122.54C68.2653 122.829 68.1299 123.235 68.1299 123.758V128H65.7359V117.64H68.1299V121.238C68.3726 120.893 68.7039 120.617 69.1239 120.412C69.5439 120.207 70.0153 120.104 70.5379 120.104ZM77.5635 121.49C77.8435 121.061 78.1935 120.725 78.6135 120.482C79.0335 120.23 79.5002 120.104 80.0135 120.104V122.638H79.3555C78.7582 122.638 78.3102 122.769 78.0115 123.03C77.7128 123.282 77.5635 123.73 77.5635 124.374V128H75.1695V120.188H77.5635V121.49ZM84.7138 128.112C83.9485 128.112 83.2578 127.949 82.6418 127.622C82.0351 127.295 81.5545 126.829 81.1998 126.222C80.8545 125.615 80.6818 124.906 80.6818 124.094C80.6818 123.291 80.8591 122.587 81.2138 121.98C81.5685 121.364 82.0538 120.893 82.6698 120.566C83.2858 120.239 83.9765 120.076 84.7418 120.076C85.5071 120.076 86.1978 120.239 86.8138 120.566C87.4298 120.893 87.9151 121.364 88.2698 121.98C88.6245 122.587 88.8018 123.291 88.8018 124.094C88.8018 124.897 88.6198 125.606 88.2558 126.222C87.9011 126.829 87.4111 127.295 86.7858 127.622C86.1698 127.949 85.4791 128.112 84.7138 128.112ZM84.7138 126.04C85.1711 126.04 85.5585 125.872 85.8758 125.536C86.2025 125.2 86.3658 124.719 86.3658 124.094C86.3658 123.469 86.2071 122.988 85.8898 122.652C85.5818 122.316 85.1991 122.148 84.7418 122.148C84.2751 122.148 83.8878 122.316 83.5798 122.652C83.2718 122.979 83.1178 123.459 83.1178 124.094C83.1178 124.719 83.2671 125.2 83.5658 125.536C83.8738 125.872 84.2565 126.04 84.7138 126.04ZM97.7859 120.188V128H95.3919V126.936C95.1492 127.281 94.8179 127.561 94.3979 127.776C93.9872 127.981 93.5299 128.084 93.0259 128.084C92.4285 128.084 91.9012 127.953 91.4439 127.692C90.9865 127.421 90.6319 127.034 90.3799 126.53C90.1279 126.026 90.0019 125.433 90.0019 124.752V120.188H92.3819V124.43C92.3819 124.953 92.5172 125.359 92.7879 125.648C93.0585 125.937 93.4225 126.082 93.8799 126.082C94.3465 126.082 94.7152 125.937 94.9859 125.648C95.2565 125.359 95.3919 124.953 95.3919 124.43V120.188H97.7859ZM102.473 120.076C103.024 120.076 103.505 120.188 103.915 120.412C104.335 120.636 104.657 120.93 104.881 121.294V120.188H107.275V127.986C107.275 128.705 107.131 129.353 106.841 129.932C106.561 130.52 106.127 130.987 105.539 131.332C104.961 131.677 104.237 131.85 103.369 131.85C102.212 131.85 101.274 131.575 100.555 131.024C99.8368 130.483 99.4261 129.745 99.3235 128.812H101.689C101.764 129.111 101.941 129.344 102.221 129.512C102.501 129.689 102.847 129.778 103.257 129.778C103.752 129.778 104.144 129.633 104.433 129.344C104.732 129.064 104.881 128.611 104.881 127.986V126.88C104.648 127.244 104.326 127.543 103.915 127.776C103.505 128 103.024 128.112 102.473 128.112C101.829 128.112 101.246 127.949 100.723 127.622C100.201 127.286 99.7855 126.815 99.4775 126.208C99.1788 125.592 99.0295 124.883 99.0295 124.08C99.0295 123.277 99.1788 122.573 99.4775 121.966C99.7855 121.359 100.201 120.893 100.723 120.566C101.246 120.239 101.829 120.076 102.473 120.076ZM104.881 124.094C104.881 123.497 104.713 123.025 104.377 122.68C104.051 122.335 103.649 122.162 103.173 122.162C102.697 122.162 102.291 122.335 101.955 122.68C101.629 123.016 101.465 123.483 101.465 124.08C101.465 124.677 101.629 125.153 101.955 125.508C102.291 125.853 102.697 126.026 103.173 126.026C103.649 126.026 104.051 125.853 104.377 125.508C104.713 125.163 104.881 124.691 104.881 124.094ZM113.809 120.104C114.705 120.104 115.424 120.403 115.965 121C116.507 121.588 116.777 122.4 116.777 123.436V128H114.397V123.758C114.397 123.235 114.262 122.829 113.991 122.54C113.721 122.251 113.357 122.106 112.899 122.106C112.442 122.106 112.078 122.251 111.807 122.54C111.537 122.829 111.401 123.235 111.401 123.758V128H109.007V117.64H111.401V121.238C111.644 120.893 111.975 120.617 112.395 120.412C112.815 120.207 113.287 120.104 113.809 120.104ZM26.5196 141.09V143.078H29.7256V144.926H26.5196V147.082H30.1456V149H24.1256V139.172H30.1456V141.09H26.5196ZM36.3198 149L34.8218 146.83L33.5618 149H30.9718L33.5478 145.01L30.9018 141.188H33.5898L35.0878 143.344L36.3478 141.188H38.9378L36.3198 145.122L39.0078 149H36.3198ZM44.2843 146.97V149H43.0663C42.1983 149 41.5216 148.79 41.0363 148.37C40.5509 147.941 40.3083 147.245 40.3083 146.284V143.176H39.3563V141.188H40.3083V139.284H42.7023V141.188H44.2703V143.176H42.7023V146.312C42.7023 146.545 42.7583 146.713 42.8703 146.816C42.9823 146.919 43.1689 146.97 43.4303 146.97H44.2843ZM52.9818 144.968C52.9818 145.192 52.9678 145.425 52.9398 145.668H47.5218C47.5591 146.153 47.7131 146.527 47.9838 146.788C48.2638 147.04 48.6044 147.166 49.0058 147.166C49.6031 147.166 50.0184 146.914 50.2518 146.41H52.7998C52.6691 146.923 52.4311 147.385 52.0858 147.796C51.7498 148.207 51.3251 148.529 50.8118 148.762C50.2984 148.995 49.7244 149.112 49.0898 149.112C48.3244 149.112 47.6431 148.949 47.0458 148.622C46.4484 148.295 45.9818 147.829 45.6458 147.222C45.3098 146.615 45.1418 145.906 45.1418 145.094C45.1418 144.282 45.3051 143.573 45.6318 142.966C45.9678 142.359 46.4344 141.893 47.0318 141.566C47.6291 141.239 48.3151 141.076 49.0898 141.076C49.8458 141.076 50.5178 141.235 51.1058 141.552C51.6938 141.869 52.1511 142.322 52.4778 142.91C52.8138 143.498 52.9818 144.184 52.9818 144.968ZM50.5318 144.338C50.5318 143.927 50.3918 143.601 50.1118 143.358C49.8318 143.115 49.4818 142.994 49.0618 142.994C48.6604 142.994 48.3198 143.111 48.0398 143.344C47.7691 143.577 47.6011 143.909 47.5358 144.338H50.5318ZM56.6387 142.49C56.9187 142.061 57.2687 141.725 57.6887 141.482C58.1087 141.23 58.5754 141.104 59.0887 141.104V143.638H58.4307C57.8334 143.638 57.3854 143.769 57.0867 144.03C56.788 144.282 56.6387 144.73 56.6387 145.374V149H54.2447V141.188H56.6387V142.49ZM64.993 141.104C65.9077 141.104 66.6357 141.403 67.177 142C67.7277 142.588 68.003 143.4 68.003 144.436V149H65.623V144.758C65.623 144.235 65.4877 143.829 65.217 143.54C64.9463 143.251 64.5823 143.106 64.125 143.106C63.6677 143.106 63.3037 143.251 63.033 143.54C62.7623 143.829 62.627 144.235 62.627 144.758V149H60.233V141.188H62.627V142.224C62.8697 141.879 63.1963 141.608 63.607 141.412C64.0177 141.207 64.4797 141.104 64.993 141.104ZM69.1906 145.08C69.1906 144.277 69.3399 143.573 69.6386 142.966C69.9466 142.359 70.3619 141.893 70.8846 141.566C71.4073 141.239 71.9906 141.076 72.6346 141.076C73.1853 141.076 73.6659 141.188 74.0766 141.412C74.4966 141.636 74.8186 141.93 75.0426 142.294V141.188H77.4366V149H75.0426V147.894C74.8093 148.258 74.4826 148.552 74.0626 148.776C73.6519 149 73.1713 149.112 72.6206 149.112C71.9859 149.112 71.4073 148.949 70.8846 148.622C70.3619 148.286 69.9466 147.815 69.6386 147.208C69.3399 146.592 69.1906 145.883 69.1906 145.08ZM75.0426 145.094C75.0426 144.497 74.8746 144.025 74.5386 143.68C74.2119 143.335 73.8106 143.162 73.3346 143.162C72.8586 143.162 72.4526 143.335 72.1166 143.68C71.7899 144.016 71.6266 144.483 71.6266 145.08C71.6266 145.677 71.7899 146.153 72.1166 146.508C72.4526 146.853 72.8586 147.026 73.3346 147.026C73.8106 147.026 74.2119 146.853 74.5386 146.508C74.8746 146.163 75.0426 145.691 75.0426 145.094ZM81.5625 138.64V149H79.1685V138.64H81.5625ZM88.6582 139.172V149H86.2642V139.172H88.6582ZM95.1531 141.104C96.0678 141.104 96.7958 141.403 97.3371 142C97.8878 142.588 98.1631 143.4 98.1631 144.436V149H95.7831V144.758C95.7831 144.235 95.6478 143.829 95.3771 143.54C95.1065 143.251 94.7425 143.106 94.2851 143.106C93.8278 143.106 93.4638 143.251 93.1931 143.54C92.9225 143.829 92.7871 144.235 92.7871 144.758V149H90.3931V141.188H92.7871V142.224C93.0298 141.879 93.3565 141.608 93.7671 141.412C94.1778 141.207 94.6398 141.104 95.1531 141.104ZM104.181 146.97V149H102.963C102.095 149 101.418 148.79 100.933 148.37C100.447 147.941 100.205 147.245 100.205 146.284V143.176H99.2527V141.188H100.205V139.284H102.599V141.188H104.167V143.176H102.599V146.312C102.599 146.545 102.655 146.713 102.767 146.816C102.879 146.919 103.065 146.97 103.327 146.97H104.181ZM112.878 144.968C112.878 145.192 112.864 145.425 112.836 145.668H107.418C107.456 146.153 107.61 146.527 107.88 146.788C108.16 147.04 108.501 147.166 108.902 147.166C109.5 147.166 109.915 146.914 110.148 146.41H112.696C112.566 146.923 112.328 147.385 111.982 147.796C111.646 148.207 111.222 148.529 110.708 148.762C110.195 148.995 109.621 149.112 108.986 149.112C108.221 149.112 107.54 148.949 106.942 148.622C106.345 148.295 105.878 147.829 105.542 147.222C105.206 146.615 105.038 145.906 105.038 145.094C105.038 144.282 105.202 143.573 105.528 142.966C105.864 142.359 106.331 141.893 106.928 141.566C107.526 141.239 108.212 141.076 108.986 141.076C109.742 141.076 110.414 141.235 111.002 141.552C111.59 141.869 112.048 142.322 112.374 142.91C112.71 143.498 112.878 144.184 112.878 144.968ZM110.428 144.338C110.428 143.927 110.288 143.601 110.008 143.358C109.728 143.115 109.378 142.994 108.958 142.994C108.557 142.994 108.216 143.111 107.936 143.344C107.666 143.577 107.498 143.909 107.432 144.338H110.428ZM116.535 142.49C116.815 142.061 117.165 141.725 117.585 141.482C118.005 141.23 118.472 141.104 118.985 141.104V143.638H118.327C117.73 143.638 117.282 143.769 116.983 144.03C116.685 144.282 116.535 144.73 116.535 145.374V149H114.141V141.188H116.535V142.49ZM124.049 143.176H122.761V149H120.367V143.176H119.499V141.188H120.367V140.964C120.367 140.003 120.643 139.275 121.193 138.78C121.744 138.276 122.551 138.024 123.615 138.024C123.793 138.024 123.923 138.029 124.007 138.038V140.068C123.55 140.04 123.228 140.105 123.041 140.264C122.855 140.423 122.761 140.707 122.761 141.118V141.188H124.049V143.176ZM124.698 145.08C124.698 144.277 124.848 143.573 125.146 142.966C125.454 142.359 125.87 141.893 126.392 141.566C126.915 141.239 127.498 141.076 128.142 141.076C128.693 141.076 129.174 141.188 129.584 141.412C130.004 141.636 130.326 141.93 130.55 142.294V141.188H132.944V149H130.55V147.894C130.317 148.258 129.99 148.552 129.57 148.776C129.16 149 128.679 149.112 128.128 149.112C127.494 149.112 126.915 148.949 126.392 148.622C125.87 148.286 125.454 147.815 125.146 147.208C124.848 146.592 124.698 145.883 124.698 145.08ZM130.55 145.094C130.55 144.497 130.382 144.025 130.046 143.68C129.72 143.335 129.318 143.162 128.842 143.162C128.366 143.162 127.96 143.335 127.624 143.68C127.298 144.016 127.134 144.483 127.134 145.08C127.134 145.677 127.298 146.153 127.624 146.508C127.96 146.853 128.366 147.026 128.842 147.026C129.318 147.026 129.72 146.853 130.046 146.508C130.382 146.163 130.55 145.691 130.55 145.094ZM134.2 145.094C134.2 144.282 134.364 143.573 134.69 142.966C135.026 142.359 135.488 141.893 136.076 141.566C136.674 141.239 137.355 141.076 138.12 141.076C139.1 141.076 139.917 141.333 140.57 141.846C141.233 142.359 141.667 143.083 141.872 144.016H139.324C139.11 143.419 138.694 143.12 138.078 143.12C137.64 143.12 137.29 143.293 137.028 143.638C136.767 143.974 136.636 144.459 136.636 145.094C136.636 145.729 136.767 146.219 137.028 146.564C137.29 146.9 137.64 147.068 138.078 147.068C138.694 147.068 139.11 146.769 139.324 146.172H141.872C141.667 147.087 141.233 147.805 140.57 148.328C139.908 148.851 139.091 149.112 138.12 149.112C137.355 149.112 136.674 148.949 136.076 148.622C135.488 148.295 135.026 147.829 134.69 147.222C134.364 146.615 134.2 145.906 134.2 145.094ZM150.517 144.968C150.517 145.192 150.503 145.425 150.475 145.668H145.057C145.094 146.153 145.248 146.527 145.519 146.788C145.799 147.04 146.14 147.166 146.541 147.166C147.138 147.166 147.554 146.914 147.787 146.41H150.335C150.204 146.923 149.966 147.385 149.621 147.796C149.285 148.207 148.86 148.529 148.347 148.762C147.834 148.995 147.26 149.112 146.625 149.112C145.86 149.112 145.178 148.949 144.581 148.622C143.984 148.295 143.517 147.829 143.181 147.222C142.845 146.615 142.677 145.906 142.677 145.094C142.677 144.282 142.84 143.573 143.167 142.966C143.503 142.359 143.97 141.893 144.567 141.566C145.164 141.239 145.85 141.076 146.625 141.076C147.381 141.076 148.053 141.235 148.641 141.552C149.229 141.869 149.686 142.322 150.013 142.91C150.349 143.498 150.517 144.184 150.517 144.968ZM148.067 144.338C148.067 143.927 147.927 143.601 147.647 143.358C147.367 143.115 147.017 142.994 146.597 142.994C146.196 142.994 145.855 143.111 145.575 143.344C145.304 143.577 145.136 143.909 145.071 144.338H148.067Z" fill="#7A92EE"/>
<rect x="195.085" y="100" width="146" height="68" rx="9" fill="#D5DFFF"/>
<rect x="195.085" y="100" width="146" height="68" rx="9" stroke="#A0AEE3" stroke-width="2" stroke-dasharray="4 4"/>
<path d="M210.84 120.384C210.84 121.035 210.691 121.632 210.392 122.176C210.093 122.709 209.635 123.141 209.016 123.472C208.397 123.803 207.629 123.968 206.712 123.968H205.016V128H202.28V116.768H206.712C207.608 116.768 208.365 116.923 208.984 117.232C209.603 117.541 210.067 117.968 210.376 118.512C210.685 119.056 210.84 119.68 210.84 120.384ZM206.504 121.792C207.027 121.792 207.416 121.669 207.672 121.424C207.928 121.179 208.056 120.832 208.056 120.384C208.056 119.936 207.928 119.589 207.672 119.344C207.416 119.099 207.027 118.976 206.504 118.976H205.016V121.792H206.504ZM220.68 123.392C220.68 123.648 220.664 123.915 220.632 124.192H214.44C214.483 124.747 214.659 125.173 214.968 125.472C215.288 125.76 215.678 125.904 216.136 125.904C216.819 125.904 217.294 125.616 217.56 125.04H220.472C220.323 125.627 220.051 126.155 219.656 126.624C219.272 127.093 218.787 127.461 218.2 127.728C217.614 127.995 216.958 128.128 216.232 128.128C215.358 128.128 214.579 127.941 213.896 127.568C213.214 127.195 212.68 126.661 212.296 125.968C211.912 125.275 211.72 124.464 211.72 123.536C211.72 122.608 211.907 121.797 212.28 121.104C212.664 120.411 213.198 119.877 213.88 119.504C214.563 119.131 215.347 118.944 216.232 118.944C217.096 118.944 217.864 119.125 218.536 119.488C219.208 119.851 219.731 120.368 220.104 121.04C220.488 121.712 220.68 122.496 220.68 123.392ZM217.88 122.672C217.88 122.203 217.72 121.829 217.4 121.552C217.08 121.275 216.68 121.136 216.2 121.136C215.742 121.136 215.352 121.269 215.032 121.536C214.723 121.803 214.531 122.181 214.456 122.672H217.88ZM224.86 120.56C225.18 120.069 225.58 119.685 226.06 119.408C226.54 119.12 227.073 118.976 227.66 118.976V121.872H226.908C226.225 121.872 225.713 122.021 225.372 122.32C225.03 122.608 224.86 123.12 224.86 123.856V128H222.124V119.072H224.86V120.56ZM233.447 121.344H231.975V128H229.239V121.344H228.247V119.072H229.239V118.816C229.239 117.717 229.554 116.885 230.183 116.32C230.813 115.744 231.735 115.456 232.951 115.456C233.154 115.456 233.303 115.461 233.399 115.472V117.792C232.877 117.76 232.509 117.835 232.295 118.016C232.082 118.197 231.975 118.523 231.975 118.992V119.072H233.447V121.344ZM238.797 128.128C237.922 128.128 237.133 127.941 236.429 127.568C235.736 127.195 235.186 126.661 234.781 125.968C234.386 125.275 234.189 124.464 234.189 123.536C234.189 122.619 234.392 121.813 234.797 121.12C235.202 120.416 235.757 119.877 236.461 119.504C237.165 119.131 237.954 118.944 238.829 118.944C239.704 118.944 240.493 119.131 241.197 119.504C241.901 119.877 242.456 120.416 242.861 121.12C243.266 121.813 243.469 122.619 243.469 123.536C243.469 124.453 243.261 125.264 242.845 125.968C242.44 126.661 241.88 127.195 241.165 127.568C240.461 127.941 239.672 128.128 238.797 128.128ZM238.797 125.76C239.32 125.76 239.762 125.568 240.125 125.184C240.498 124.8 240.685 124.251 240.685 123.536C240.685 122.821 240.504 122.272 240.141 121.888C239.789 121.504 239.352 121.312 238.829 121.312C238.296 121.312 237.853 121.504 237.501 121.888C237.149 122.261 236.973 122.811 236.973 123.536C236.973 124.251 237.144 124.8 237.485 125.184C237.837 125.568 238.274 125.76 238.797 125.76ZM247.656 120.56C247.976 120.069 248.376 119.685 248.856 119.408C249.336 119.12 249.87 118.976 250.456 118.976V121.872H249.704C249.022 121.872 248.51 122.021 248.168 122.32C247.827 122.608 247.656 123.12 247.656 123.856V128H244.92V119.072H247.656V120.56ZM263.156 118.976C264.266 118.976 265.146 119.312 265.796 119.984C266.458 120.656 266.788 121.589 266.788 122.784V128H264.068V123.152C264.068 122.576 263.914 122.133 263.604 121.824C263.306 121.504 262.89 121.344 262.356 121.344C261.823 121.344 261.402 121.504 261.092 121.824C260.794 122.133 260.644 122.576 260.644 123.152V128H257.924V123.152C257.924 122.576 257.77 122.133 257.46 121.824C257.162 121.504 256.746 121.344 256.212 121.344C255.679 121.344 255.258 121.504 254.948 121.824C254.65 122.133 254.5 122.576 254.5 123.152V128H251.764V119.072H254.5V120.192C254.778 119.819 255.14 119.525 255.588 119.312C256.036 119.088 256.543 118.976 257.108 118.976C257.78 118.976 258.378 119.12 258.9 119.408C259.434 119.696 259.85 120.107 260.148 120.64C260.458 120.149 260.879 119.749 261.412 119.44C261.946 119.131 262.527 118.976 263.156 118.976ZM277.82 128L275.484 123.76H274.828V128H272.092V116.768H276.684C277.57 116.768 278.322 116.923 278.94 117.232C279.57 117.541 280.039 117.968 280.348 118.512C280.658 119.045 280.812 119.643 280.812 120.304C280.812 121.051 280.599 121.717 280.172 122.304C279.756 122.891 279.138 123.307 278.316 123.552L280.908 128H277.82ZM274.828 121.824H276.524C277.026 121.824 277.399 121.701 277.644 121.456C277.9 121.211 278.028 120.864 278.028 120.416C278.028 119.989 277.9 119.653 277.644 119.408C277.399 119.163 277.026 119.04 276.524 119.04H274.828V121.824ZM290.946 123.392C290.946 123.648 290.93 123.915 290.898 124.192H284.706C284.749 124.747 284.925 125.173 285.234 125.472C285.554 125.76 285.943 125.904 286.402 125.904C287.085 125.904 287.559 125.616 287.826 125.04H290.738C290.589 125.627 290.317 126.155 289.922 126.624C289.538 127.093 289.053 127.461 288.466 127.728C287.879 127.995 287.223 128.128 286.498 128.128C285.623 128.128 284.845 127.941 284.162 127.568C283.479 127.195 282.946 126.661 282.562 125.968C282.178 125.275 281.986 124.464 281.986 123.536C281.986 122.608 282.173 121.797 282.546 121.104C282.93 120.411 283.463 119.877 284.146 119.504C284.829 119.131 285.613 118.944 286.498 118.944C287.362 118.944 288.13 119.125 288.802 119.488C289.474 119.851 289.997 120.368 290.37 121.04C290.754 121.712 290.946 122.496 290.946 123.392ZM288.146 122.672C288.146 122.203 287.986 121.829 287.666 121.552C287.346 121.275 286.946 121.136 286.466 121.136C286.007 121.136 285.618 121.269 285.298 121.536C284.989 121.803 284.797 122.181 284.722 122.672H288.146ZM303.781 118.976C304.891 118.976 305.771 119.312 306.421 119.984C307.083 120.656 307.413 121.589 307.413 122.784V128H304.693V123.152C304.693 122.576 304.539 122.133 304.229 121.824C303.931 121.504 303.515 121.344 302.981 121.344C302.448 121.344 302.027 121.504 301.717 121.824C301.419 122.133 301.269 122.576 301.269 123.152V128H298.549V123.152C298.549 122.576 298.395 122.133 298.085 121.824C297.787 121.504 297.371 121.344 296.837 121.344C296.304 121.344 295.883 121.504 295.573 121.824C295.275 122.133 295.125 122.576 295.125 123.152V128H292.389V119.072H295.125V120.192C295.403 119.819 295.765 119.525 296.213 119.312C296.661 119.088 297.168 118.976 297.733 118.976C298.405 118.976 299.003 119.12 299.525 119.408C300.059 119.696 300.475 120.107 300.773 120.64C301.083 120.149 301.504 119.749 302.037 119.44C302.571 119.131 303.152 118.976 303.781 118.976ZM313.391 128.128C312.516 128.128 311.727 127.941 311.023 127.568C310.329 127.195 309.78 126.661 309.375 125.968C308.98 125.275 308.783 124.464 308.783 123.536C308.783 122.619 308.985 121.813 309.391 121.12C309.796 120.416 310.351 119.877 311.055 119.504C311.759 119.131 312.548 118.944 313.423 118.944C314.297 118.944 315.087 119.131 315.791 119.504C316.495 119.877 317.049 120.416 317.455 121.12C317.86 121.813 318.063 122.619 318.063 123.536C318.063 124.453 317.855 125.264 317.439 125.968C317.033 126.661 316.473 127.195 315.759 127.568C315.055 127.941 314.265 128.128 313.391 128.128ZM313.391 125.76C313.913 125.76 314.356 125.568 314.719 125.184C315.092 124.8 315.279 124.251 315.279 123.536C315.279 122.821 315.097 122.272 314.735 121.888C314.383 121.504 313.945 121.312 313.423 121.312C312.889 121.312 312.447 121.504 312.095 121.888C311.743 122.261 311.567 122.811 311.567 123.536C311.567 124.251 311.737 124.8 312.079 125.184C312.431 125.568 312.868 125.76 313.391 125.76ZM324.49 125.68V128H323.098C322.106 128 321.333 127.76 320.778 127.28C320.224 126.789 319.946 125.995 319.946 124.896V121.344H318.858V119.072H319.946V116.896H322.682V119.072H324.474V121.344H322.682V124.928C322.682 125.195 322.746 125.387 322.874 125.504C323.002 125.621 323.216 125.68 323.514 125.68H324.49ZM334.43 123.392C334.43 123.648 334.414 123.915 334.382 124.192H328.19C328.233 124.747 328.409 125.173 328.718 125.472C329.038 125.76 329.428 125.904 329.886 125.904C330.569 125.904 331.044 125.616 331.31 125.04H334.222C334.073 125.627 333.801 126.155 333.406 126.624C333.022 127.093 332.537 127.461 331.95 127.728C331.364 127.995 330.708 128.128 329.982 128.128C329.108 128.128 328.329 127.941 327.646 127.568C326.964 127.195 326.43 126.661 326.046 125.968C325.662 125.275 325.47 124.464 325.47 123.536C325.47 122.608 325.657 121.797 326.03 121.104C326.414 120.411 326.948 119.877 327.63 119.504C328.313 119.131 329.097 118.944 329.982 118.944C330.846 118.944 331.614 119.125 332.286 119.488C332.958 119.851 333.481 120.368 333.854 121.04C334.238 121.712 334.43 122.496 334.43 123.392ZM331.63 122.672C331.63 122.203 331.47 121.829 331.15 121.552C330.83 121.275 330.43 121.136 329.95 121.136C329.492 121.136 329.102 121.269 328.782 121.536C328.473 121.803 328.281 122.181 328.206 122.672H331.63ZM244.289 142.96V145.232H247.953V147.344H244.289V149.808H248.433V152H241.553V140.768H248.433V142.96H244.289ZM255.49 152L253.778 149.52L252.338 152H249.378L252.322 147.44L249.298 143.072H252.37L254.082 145.536L255.522 143.072H258.482L255.49 147.568L258.562 152H255.49ZM262.352 144.336C262.618 143.92 262.986 143.584 263.456 143.328C263.925 143.072 264.474 142.944 265.104 142.944C265.84 142.944 266.506 143.131 267.104 143.504C267.701 143.877 268.17 144.411 268.512 145.104C268.864 145.797 269.04 146.603 269.04 147.52C269.04 148.437 268.864 149.248 268.512 149.952C268.17 150.645 267.701 151.184 267.104 151.568C266.506 151.941 265.84 152.128 265.104 152.128C264.485 152.128 263.936 152 263.456 151.744C262.986 151.488 262.618 151.157 262.352 150.752V156.256H259.616V143.072H262.352V144.336ZM266.256 147.52C266.256 146.837 266.064 146.304 265.68 145.92C265.306 145.525 264.842 145.328 264.288 145.328C263.744 145.328 263.28 145.525 262.896 145.92C262.522 146.315 262.336 146.853 262.336 147.536C262.336 148.219 262.522 148.757 262.896 149.152C263.28 149.547 263.744 149.744 264.288 149.744C264.832 149.744 265.296 149.547 265.68 149.152C266.064 148.747 266.256 148.203 266.256 147.52ZM273.211 140.16V152H270.475V140.16H273.211ZM279.258 152.128C278.383 152.128 277.594 151.941 276.89 151.568C276.197 151.195 275.647 150.661 275.242 149.968C274.847 149.275 274.65 148.464 274.65 147.536C274.65 146.619 274.853 145.813 275.258 145.12C275.663 144.416 276.218 143.877 276.922 143.504C277.626 143.131 278.415 142.944 279.29 142.944C280.165 142.944 280.954 143.131 281.658 143.504C282.362 143.877 282.917 144.416 283.322 145.12C283.727 145.813 283.93 146.619 283.93 147.536C283.93 148.453 283.722 149.264 283.306 149.968C282.901 150.661 282.341 151.195 281.626 151.568C280.922 151.941 280.133 152.128 279.258 152.128ZM279.258 149.76C279.781 149.76 280.223 149.568 280.586 149.184C280.959 148.8 281.146 148.251 281.146 147.536C281.146 146.821 280.965 146.272 280.602 145.888C280.25 145.504 279.813 145.312 279.29 145.312C278.757 145.312 278.314 145.504 277.962 145.888C277.61 146.261 277.434 146.811 277.434 147.536C277.434 148.251 277.605 148.8 277.946 149.184C278.298 149.568 278.735 149.76 279.258 149.76ZM286.757 142.144C286.277 142.144 285.883 142.005 285.573 141.728C285.275 141.44 285.125 141.088 285.125 140.672C285.125 140.245 285.275 139.893 285.573 139.616C285.883 139.328 286.277 139.184 286.757 139.184C287.227 139.184 287.611 139.328 287.909 139.616C288.219 139.893 288.373 140.245 288.373 140.672C288.373 141.088 288.219 141.44 287.909 141.728C287.611 142.005 287.227 142.144 286.757 142.144ZM288.117 143.072V152H285.381V143.072H288.117ZM295.076 149.68V152H293.684C292.692 152 291.919 151.76 291.364 151.28C290.809 150.789 290.532 149.995 290.532 148.896V145.344H289.444V143.072H290.532V140.896H293.268V143.072H295.06V145.344H293.268V148.928C293.268 149.195 293.332 149.387 293.46 149.504C293.588 149.621 293.801 149.68 294.1 149.68H295.076Z" fill="#7A92EE"/>
<rect x="1.05835" y="222" width="76.8833" height="41.6675" rx="9" fill="#D5DFFF"/>
<rect x="1.05835" y="222" width="76.8833" height="41.6675" rx="9" stroke="#2F59D3" stroke-width="2"/>
<path d="M28.429 248.946C27.373 248.946 26.4023 248.7 25.517 248.21C24.6423 247.719 23.9437 247.036 23.421 246.162C22.909 245.276 22.653 244.284 22.653 243.186C22.653 242.087 22.909 241.1 23.421 240.226C23.9437 239.351 24.6423 238.668 25.517 238.178C26.4023 237.687 27.373 237.442 28.429 237.442C29.485 237.442 30.4503 237.687 31.325 238.178C32.2103 238.668 32.9037 239.351 33.405 240.226C33.917 241.1 34.173 242.087 34.173 243.186C34.173 244.284 33.917 245.276 33.405 246.162C32.893 247.036 32.1997 247.719 31.325 248.21C30.4503 248.7 29.485 248.946 28.429 248.946ZM28.429 246.45C29.325 246.45 30.0397 246.151 30.573 245.554C31.117 244.956 31.389 244.167 31.389 243.186C31.389 242.194 31.117 241.404 30.573 240.818C30.0397 240.22 29.325 239.922 28.429 239.922C27.5223 239.922 26.797 240.215 26.253 240.802C25.7197 241.388 25.453 242.183 25.453 243.186C25.453 244.178 25.7197 244.972 26.253 245.57C26.797 246.156 27.5223 246.45 28.429 246.45ZM42.4951 243.074C43.1458 243.212 43.6685 243.538 44.0631 244.05C44.4578 244.551 44.6551 245.127 44.6551 245.778C44.6551 246.716 44.3245 247.463 43.6631 248.018C43.0125 248.562 42.1005 248.834 40.9271 248.834H35.6951V237.602H40.7511C41.8925 237.602 42.7831 237.863 43.4231 238.386C44.0738 238.908 44.3991 239.618 44.3991 240.514C44.3991 241.175 44.2231 241.724 43.8711 242.162C43.5298 242.599 43.0711 242.903 42.4951 243.074ZM38.4311 242.146H40.2231C40.6711 242.146 41.0125 242.05 41.2471 241.858C41.4925 241.655 41.6151 241.362 41.6151 240.978C41.6151 240.594 41.4925 240.3 41.2471 240.098C41.0125 239.895 40.6711 239.794 40.2231 239.794H38.4311V242.146ZM40.4471 246.626C40.9058 246.626 41.2578 246.524 41.5031 246.322C41.7591 246.108 41.8871 245.804 41.8871 245.41C41.8871 245.015 41.7538 244.706 41.4871 244.482C41.2311 244.258 40.8738 244.146 40.4151 244.146H38.4311V246.626H40.4471ZM50.45 237.602C51.634 237.602 52.6687 237.836 53.554 238.306C54.4393 238.775 55.122 239.436 55.602 240.29C56.0927 241.132 56.338 242.108 56.338 243.218C56.338 244.316 56.0927 245.292 55.602 246.146C55.122 246.999 54.434 247.66 53.538 248.13C52.6527 248.599 51.6233 248.834 50.45 248.834H46.242V237.602H50.45ZM50.274 246.466C51.3087 246.466 52.114 246.183 52.69 245.618C53.266 245.052 53.554 244.252 53.554 243.218C53.554 242.183 53.266 241.378 52.69 240.802C52.114 240.226 51.3087 239.938 50.274 239.938H48.978V246.466H50.274Z" fill="#2F59D3"/>
<rect x="51.0583" y="318" width="76.8833" height="41.6675" rx="9" fill="#D5DFFF"/>
<rect x="51.0583" y="318" width="76.8833" height="41.6675" rx="9" stroke="#2F59D3" stroke-width="2"/>
<path d="M88.4402 333.602L85.5122 344.834H82.2002L80.4082 337.442L78.5522 344.834H75.2402L72.3922 333.602H75.3202L76.9362 341.778L78.9362 333.602H81.9442L83.8642 341.778L85.4962 333.602H88.4402ZM91.1883 334.978C90.7083 334.978 90.3136 334.839 90.0043 334.562C89.7056 334.274 89.5563 333.922 89.5563 333.506C89.5563 333.079 89.7056 332.727 90.0043 332.45C90.3136 332.162 90.7083 332.018 91.1883 332.018C91.6576 332.018 92.0416 332.162 92.3403 332.45C92.6496 332.727 92.8043 333.079 92.8043 333.506C92.8043 333.922 92.6496 334.274 92.3403 334.562C92.0416 334.839 91.6576 334.978 91.1883 334.978ZM92.5483 335.906V344.834H89.8123V335.906H92.5483ZM101.843 333.602V335.794H97.2671V338.162H100.691V340.29H97.2671V344.834H94.5311V333.602H101.843ZM104.657 334.978C104.177 334.978 103.782 334.839 103.473 334.562C103.174 334.274 103.025 333.922 103.025 333.506C103.025 333.079 103.174 332.727 103.473 332.45C103.782 332.162 104.177 332.018 104.657 332.018C105.126 332.018 105.51 332.162 105.809 332.45C106.118 332.727 106.273 333.079 106.273 333.506C106.273 333.922 106.118 334.274 105.809 334.562C105.51 334.839 105.126 334.978 104.657 334.978ZM106.017 335.906V344.834H103.281V335.906H106.017Z" fill="#2F59D3"/>
<rect x="182.058" y="222" width="76.8833" height="41.6675" rx="9" fill="#D5DFFF"/>
<rect x="182.058" y="222" width="76.8833" height="41.6675" rx="9" stroke="#2F59D3" stroke-width="2"/>
<path d="M209.429 248.946C208.373 248.946 207.402 248.7 206.517 248.21C205.642 247.719 204.944 247.036 204.421 246.162C203.909 245.276 203.653 244.284 203.653 243.186C203.653 242.087 203.909 241.1 204.421 240.226C204.944 239.351 205.642 238.668 206.517 238.178C207.402 237.687 208.373 237.442 209.429 237.442C210.485 237.442 211.45 237.687 212.325 238.178C213.21 238.668 213.904 239.351 214.405 240.226C214.917 241.1 215.173 242.087 215.173 243.186C215.173 244.284 214.917 245.276 214.405 246.162C213.893 247.036 213.2 247.719 212.325 248.21C211.45 248.7 210.485 248.946 209.429 248.946ZM209.429 246.45C210.325 246.45 211.04 246.151 211.573 245.554C212.117 244.956 212.389 244.167 212.389 243.186C212.389 242.194 212.117 241.404 211.573 240.818C211.04 240.22 210.325 239.922 209.429 239.922C208.522 239.922 207.797 240.215 207.253 240.802C206.72 241.388 206.453 242.183 206.453 243.186C206.453 244.178 206.72 244.972 207.253 245.57C207.797 246.156 208.522 246.45 209.429 246.45ZM223.495 243.074C224.146 243.212 224.668 243.538 225.063 244.05C225.458 244.551 225.655 245.127 225.655 245.778C225.655 246.716 225.324 247.463 224.663 248.018C224.012 248.562 223.1 248.834 221.927 248.834H216.695V237.602H221.751C222.892 237.602 223.783 237.863 224.423 238.386C225.074 238.908 225.399 239.618 225.399 240.514C225.399 241.175 225.223 241.724 224.871 242.162C224.53 242.599 224.071 242.903 223.495 243.074ZM219.431 242.146H221.223C221.671 242.146 222.012 242.05 222.247 241.858C222.492 241.655 222.615 241.362 222.615 240.978C222.615 240.594 222.492 240.3 222.247 240.098C222.012 239.895 221.671 239.794 221.223 239.794H219.431V242.146ZM221.447 246.626C221.906 246.626 222.258 246.524 222.503 246.322C222.759 246.108 222.887 245.804 222.887 245.41C222.887 245.015 222.754 244.706 222.487 244.482C222.231 244.258 221.874 244.146 221.415 244.146H219.431V246.626H221.447ZM231.45 237.602C232.634 237.602 233.669 237.836 234.554 238.306C235.439 238.775 236.122 239.436 236.602 240.29C237.093 241.132 237.338 242.108 237.338 243.218C237.338 244.316 237.093 245.292 236.602 246.146C236.122 246.999 235.434 247.66 234.538 248.13C233.653 248.599 232.623 248.834 231.45 248.834H227.242V237.602H231.45ZM231.274 246.466C232.309 246.466 233.114 246.183 233.69 245.618C234.266 245.052 234.554 244.252 234.554 243.218C234.554 242.183 234.266 241.378 233.69 240.802C233.114 240.226 232.309 239.938 231.274 239.938H229.978V246.466H231.274Z" fill="#2F59D3"/>
<rect x="90.0583" y="222" width="76.8833" height="41.6675" rx="9" fill="#D5DFFF"/>
<rect x="90.0583" y="222" width="76.8833" height="41.6675" rx="9" stroke="#2F59D3" stroke-width="2"/>
<path d="M116.344 237.602V244.322C116.344 244.994 116.509 245.511 116.84 245.874C117.171 246.236 117.656 246.418 118.296 246.418C118.936 246.418 119.427 246.236 119.768 245.874C120.109 245.511 120.28 244.994 120.28 244.322V237.602H123.016V244.306C123.016 245.308 122.803 246.156 122.376 246.85C121.949 247.543 121.373 248.066 120.648 248.418C119.933 248.77 119.133 248.946 118.248 248.946C117.363 248.946 116.568 248.775 115.864 248.434C115.171 248.082 114.621 247.559 114.216 246.866C113.811 246.162 113.608 245.308 113.608 244.306V237.602H116.344ZM129.001 248.946C128.18 248.946 127.444 248.812 126.793 248.546C126.143 248.279 125.62 247.884 125.225 247.362C124.841 246.839 124.639 246.21 124.617 245.474H127.529C127.572 245.89 127.716 246.21 127.961 246.434C128.207 246.647 128.527 246.754 128.921 246.754C129.327 246.754 129.647 246.663 129.881 246.482C130.116 246.29 130.233 246.028 130.233 245.698C130.233 245.42 130.137 245.191 129.945 245.01C129.764 244.828 129.535 244.679 129.257 244.562C128.991 244.444 128.607 244.311 128.105 244.162C127.38 243.938 126.788 243.714 126.329 243.49C125.871 243.266 125.476 242.935 125.145 242.498C124.815 242.06 124.649 241.49 124.649 240.786C124.649 239.74 125.028 238.924 125.785 238.338C126.543 237.74 127.529 237.442 128.745 237.442C129.983 237.442 130.98 237.74 131.737 238.338C132.495 238.924 132.9 239.746 132.953 240.802H129.993C129.972 240.439 129.839 240.156 129.593 239.954C129.348 239.74 129.033 239.634 128.649 239.634C128.319 239.634 128.052 239.724 127.849 239.906C127.647 240.076 127.545 240.327 127.545 240.658C127.545 241.02 127.716 241.303 128.057 241.506C128.399 241.708 128.932 241.927 129.657 242.162C130.383 242.407 130.969 242.642 131.417 242.866C131.876 243.09 132.271 243.415 132.601 243.842C132.932 244.268 133.097 244.818 133.097 245.49C133.097 246.13 132.932 246.711 132.601 247.234C132.281 247.756 131.812 248.172 131.193 248.482C130.575 248.791 129.844 248.946 129.001 248.946ZM141.581 243.074C142.232 243.212 142.754 243.538 143.149 244.05C143.544 244.551 143.741 245.127 143.741 245.778C143.741 246.716 143.41 247.463 142.749 248.018C142.098 248.562 141.186 248.834 140.013 248.834H134.781V237.602H139.837C140.978 237.602 141.869 237.863 142.509 238.386C143.16 238.908 143.485 239.618 143.485 240.514C143.485 241.175 143.309 241.724 142.957 242.162C142.616 242.599 142.157 242.903 141.581 243.074ZM137.517 242.146H139.309C139.757 242.146 140.098 242.05 140.333 241.858C140.578 241.655 140.701 241.362 140.701 240.978C140.701 240.594 140.578 240.3 140.333 240.098C140.098 239.895 139.757 239.794 139.309 239.794H137.517V242.146ZM139.533 246.626C139.992 246.626 140.344 246.524 140.589 246.322C140.845 246.108 140.973 245.804 140.973 245.41C140.973 245.015 140.84 244.706 140.573 244.482C140.317 244.258 139.96 244.146 139.501 244.146H137.517V246.626H139.533Z" fill="#2F59D3"/>
<rect x="140.058" y="318" width="100" height="61" rx="9" fill="#D5DFFF"/>
<rect x="140.058" y="318" width="100" height="61" rx="9" stroke="#2F59D3" stroke-width="2"/>
<path d="M182.725 336.74C183.376 336.879 183.899 337.204 184.293 337.716C184.688 338.217 184.885 338.793 184.885 339.444C184.885 340.383 184.555 341.129 183.893 341.684C183.243 342.228 182.331 342.5 181.157 342.5H175.925V331.268H180.981C182.123 331.268 183.013 331.529 183.653 332.052C184.304 332.575 184.629 333.284 184.629 334.18C184.629 334.841 184.453 335.391 184.101 335.828C183.76 336.265 183.301 336.569 182.725 336.74ZM178.661 335.812H180.453C180.901 335.812 181.243 335.716 181.477 335.524C181.723 335.321 181.845 335.028 181.845 334.644C181.845 334.26 181.723 333.967 181.477 333.764C181.243 333.561 180.901 333.46 180.453 333.46H178.661V335.812ZM180.677 340.292C181.136 340.292 181.488 340.191 181.733 339.988C181.989 339.775 182.117 339.471 182.117 339.076C182.117 338.681 181.984 338.372 181.717 338.148C181.461 337.924 181.104 337.812 180.645 337.812H178.661V340.292H180.677ZM195.288 333.572V342.5H192.552V341.284C192.275 341.679 191.896 341.999 191.416 342.244C190.947 342.479 190.424 342.596 189.848 342.596C189.166 342.596 188.563 342.447 188.04 342.148C187.518 341.839 187.112 341.396 186.824 340.82C186.536 340.244 186.392 339.567 186.392 338.788V333.572H189.112V338.42C189.112 339.017 189.267 339.481 189.576 339.812C189.886 340.143 190.302 340.308 190.824 340.308C191.358 340.308 191.779 340.143 192.088 339.812C192.398 339.481 192.552 339.017 192.552 338.42V333.572H195.288ZM200.885 342.628C200.107 342.628 199.413 342.495 198.805 342.228C198.197 341.961 197.717 341.599 197.365 341.14C197.013 340.671 196.816 340.148 196.773 339.572H199.477C199.509 339.881 199.653 340.132 199.909 340.324C200.165 340.516 200.48 340.612 200.853 340.612C201.195 340.612 201.456 340.548 201.637 340.42C201.829 340.281 201.925 340.105 201.925 339.892C201.925 339.636 201.792 339.449 201.525 339.332C201.259 339.204 200.827 339.065 200.229 338.916C199.589 338.767 199.056 338.612 198.629 338.452C198.203 338.281 197.835 338.02 197.525 337.668C197.216 337.305 197.061 336.82 197.061 336.212C197.061 335.7 197.2 335.236 197.477 334.82C197.765 334.393 198.181 334.057 198.725 333.812C199.28 333.567 199.936 333.444 200.693 333.444C201.813 333.444 202.693 333.721 203.333 334.276C203.984 334.831 204.357 335.567 204.453 336.484H201.925C201.883 336.175 201.744 335.929 201.509 335.748C201.285 335.567 200.987 335.476 200.613 335.476C200.293 335.476 200.048 335.54 199.877 335.668C199.707 335.785 199.621 335.951 199.621 336.164C199.621 336.42 199.755 336.612 200.021 336.74C200.299 336.868 200.725 336.996 201.301 337.124C201.963 337.295 202.501 337.465 202.917 337.636C203.333 337.796 203.696 338.063 204.005 338.436C204.325 338.799 204.491 339.289 204.501 339.908C204.501 340.431 204.352 340.9 204.053 341.316C203.765 341.721 203.344 342.041 202.789 342.276C202.245 342.511 201.611 342.628 200.885 342.628ZM166.512 366.5H163.776L159.2 359.572V366.5H156.464V355.268H159.2L163.776 362.228V355.268H166.512V366.5ZM176.912 361.892C176.912 362.148 176.896 362.415 176.864 362.692H170.672C170.714 363.247 170.89 363.673 171.2 363.972C171.52 364.26 171.909 364.404 172.368 364.404C173.05 364.404 173.525 364.116 173.792 363.54H176.704C176.554 364.127 176.282 364.655 175.888 365.124C175.504 365.593 175.018 365.961 174.432 366.228C173.845 366.495 173.189 366.628 172.464 366.628C171.589 366.628 170.81 366.441 170.128 366.068C169.445 365.695 168.912 365.161 168.528 364.468C168.144 363.775 167.952 362.964 167.952 362.036C167.952 361.108 168.138 360.297 168.512 359.604C168.896 358.911 169.429 358.377 170.112 358.004C170.794 357.631 171.578 357.444 172.464 357.444C173.328 357.444 174.096 357.625 174.768 357.988C175.44 358.351 175.962 358.868 176.336 359.54C176.72 360.212 176.912 360.996 176.912 361.892ZM174.112 361.172C174.112 360.703 173.952 360.329 173.632 360.052C173.312 359.775 172.912 359.636 172.432 359.636C171.973 359.636 171.584 359.769 171.264 360.036C170.954 360.303 170.762 360.681 170.688 361.172H174.112ZM183.331 364.18V366.5H181.939C180.947 366.5 180.174 366.26 179.619 365.78C179.064 365.289 178.787 364.495 178.787 363.396V359.844H177.699V357.572H178.787V355.396H181.523V357.572H183.315V359.844H181.523V363.428C181.523 363.695 181.587 363.887 181.715 364.004C181.843 364.121 182.056 364.18 182.355 364.18H183.331ZM197.671 357.572L195.255 366.5H192.231L190.823 360.708L189.367 366.5H186.359L183.927 357.572H186.663L187.927 363.956L189.431 357.572H192.327L193.847 363.924L195.095 357.572H197.671ZM202.778 366.628C201.904 366.628 201.114 366.441 200.41 366.068C199.717 365.695 199.168 365.161 198.762 364.468C198.368 363.775 198.17 362.964 198.17 362.036C198.17 361.119 198.373 360.313 198.778 359.62C199.184 358.916 199.738 358.377 200.442 358.004C201.146 357.631 201.936 357.444 202.81 357.444C203.685 357.444 204.474 357.631 205.178 358.004C205.882 358.377 206.437 358.916 206.842 359.62C207.248 360.313 207.45 361.119 207.45 362.036C207.45 362.953 207.242 363.764 206.826 364.468C206.421 365.161 205.861 365.695 205.146 366.068C204.442 366.441 203.653 366.628 202.778 366.628ZM202.778 364.26C203.301 364.26 203.744 364.068 204.106 363.684C204.48 363.3 204.666 362.751 204.666 362.036C204.666 361.321 204.485 360.772 204.122 360.388C203.77 360.004 203.333 359.812 202.81 359.812C202.277 359.812 201.834 360.004 201.482 360.388C201.13 360.761 200.954 361.311 200.954 362.036C200.954 362.751 201.125 363.3 201.466 363.684C201.818 364.068 202.256 364.26 202.778 364.26ZM211.638 359.06C211.958 358.569 212.358 358.185 212.838 357.908C213.318 357.62 213.851 357.476 214.438 357.476V360.372H213.686C213.003 360.372 212.491 360.521 212.15 360.82C211.809 361.108 211.638 361.62 211.638 362.356V366.5H208.902V357.572H211.638V359.06ZM221.202 366.5L218.482 362.756V366.5H215.746V354.66H218.482V361.204L221.186 357.572H224.562L220.85 362.052L224.594 366.5H221.202Z" fill="#2F59D3"/>
<rect x="271.058" y="222" width="76.8833" height="41.6675" rx="9" fill="#D5DFFF"/>
<rect x="271.058" y="222" width="76.8833" height="41.6675" rx="9" stroke="#2F59D3" stroke-width="2"/>
<path d="M297.344 237.602V244.322C297.344 244.994 297.509 245.511 297.84 245.874C298.171 246.236 298.656 246.418 299.296 246.418C299.936 246.418 300.427 246.236 300.768 245.874C301.109 245.511 301.28 244.994 301.28 244.322V237.602H304.016V244.306C304.016 245.308 303.803 246.156 303.376 246.85C302.949 247.543 302.373 248.066 301.648 248.418C300.933 248.77 300.133 248.946 299.248 248.946C298.363 248.946 297.568 248.775 296.864 248.434C296.171 248.082 295.621 247.559 295.216 246.866C294.811 246.162 294.608 245.308 294.608 244.306V237.602H297.344ZM310.001 248.946C309.18 248.946 308.444 248.812 307.793 248.546C307.143 248.279 306.62 247.884 306.225 247.362C305.841 246.839 305.639 246.21 305.617 245.474H308.529C308.572 245.89 308.716 246.21 308.961 246.434C309.207 246.647 309.527 246.754 309.921 246.754C310.327 246.754 310.647 246.663 310.881 246.482C311.116 246.29 311.233 246.028 311.233 245.698C311.233 245.42 311.137 245.191 310.945 245.01C310.764 244.828 310.535 244.679 310.257 244.562C309.991 244.444 309.607 244.311 309.105 244.162C308.38 243.938 307.788 243.714 307.329 243.49C306.871 243.266 306.476 242.935 306.145 242.498C305.815 242.06 305.649 241.49 305.649 240.786C305.649 239.74 306.028 238.924 306.785 238.338C307.543 237.74 308.529 237.442 309.745 237.442C310.983 237.442 311.98 237.74 312.737 238.338C313.495 238.924 313.9 239.746 313.953 240.802H310.993C310.972 240.439 310.839 240.156 310.593 239.954C310.348 239.74 310.033 239.634 309.649 239.634C309.319 239.634 309.052 239.724 308.849 239.906C308.647 240.076 308.545 240.327 308.545 240.658C308.545 241.02 308.716 241.303 309.057 241.506C309.399 241.708 309.932 241.927 310.657 242.162C311.383 242.407 311.969 242.642 312.417 242.866C312.876 243.09 313.271 243.415 313.601 243.842C313.932 244.268 314.097 244.818 314.097 245.49C314.097 246.13 313.932 246.711 313.601 247.234C313.281 247.756 312.812 248.172 312.193 248.482C311.575 248.791 310.844 248.946 310.001 248.946ZM322.581 243.074C323.232 243.212 323.754 243.538 324.149 244.05C324.544 244.551 324.741 245.127 324.741 245.778C324.741 246.716 324.41 247.463 323.749 248.018C323.098 248.562 322.186 248.834 321.013 248.834H315.781V237.602H320.837C321.978 237.602 322.869 237.863 323.509 238.386C324.16 238.908 324.485 239.618 324.485 240.514C324.485 241.175 324.309 241.724 323.957 242.162C323.616 242.599 323.157 242.903 322.581 243.074ZM318.517 242.146H320.309C320.757 242.146 321.098 242.05 321.333 241.858C321.578 241.655 321.701 241.362 321.701 240.978C321.701 240.594 321.578 240.3 321.333 240.098C321.098 239.895 320.757 239.794 320.309 239.794H318.517V242.146ZM320.533 246.626C320.992 246.626 321.344 246.524 321.589 246.322C321.845 246.108 321.973 245.804 321.973 245.41C321.973 245.015 321.84 244.706 321.573 244.482C321.317 244.258 320.96 244.146 320.501 244.146H318.517V246.626H320.533Z" fill="#2F59D3"/>
<rect x="105.242" y="0.0219727" width="141" height="47" rx="10" fill="#2F59D3"/>
<path d="M133.784 21.842C133.582 21.4686 133.288 21.186 132.904 20.994C132.531 20.7913 132.088 20.69 131.576 20.69C130.691 20.69 129.982 20.9833 129.448 21.57C128.915 22.146 128.648 22.9193 128.648 23.89C128.648 24.9246 128.926 25.7353 129.48 26.322C130.046 26.898 130.819 27.186 131.8 27.186C132.472 27.186 133.038 27.0153 133.496 26.674C133.966 26.3326 134.307 25.842 134.52 25.202H131.048V23.186H137V25.73C136.798 26.4126 136.451 27.0473 135.96 27.634C135.48 28.2206 134.867 28.6953 134.12 29.058C133.374 29.4206 132.531 29.602 131.592 29.602C130.483 29.602 129.491 29.362 128.616 28.882C127.752 28.3913 127.075 27.714 126.584 26.85C126.104 25.986 125.864 24.9993 125.864 23.89C125.864 22.7806 126.104 21.794 126.584 20.93C127.075 20.0553 127.752 19.378 128.616 18.898C129.48 18.4073 130.467 18.162 131.576 18.162C132.92 18.162 134.051 18.4873 134.968 19.138C135.896 19.7886 136.51 20.69 136.808 21.842H133.784ZM137.972 25.042C137.972 24.1246 138.142 23.3193 138.484 22.626C138.836 21.9326 139.31 21.3993 139.908 21.026C140.505 20.6526 141.172 20.466 141.908 20.466C142.537 20.466 143.086 20.594 143.556 20.85C144.036 21.106 144.404 21.442 144.66 21.858V20.594H147.396V29.522H144.66V28.258C144.393 28.674 144.02 29.01 143.54 29.266C143.07 29.522 142.521 29.65 141.892 29.65C141.166 29.65 140.505 29.4633 139.908 29.09C139.31 28.706 138.836 28.1673 138.484 27.474C138.142 26.77 137.972 25.9593 137.972 25.042ZM144.66 25.058C144.66 24.3753 144.468 23.8366 144.084 23.442C143.71 23.0473 143.252 22.85 142.708 22.85C142.164 22.85 141.7 23.0473 141.316 23.442C140.942 23.826 140.756 24.3593 140.756 25.042C140.756 25.7246 140.942 26.2686 141.316 26.674C141.7 27.0686 142.164 27.266 142.708 27.266C143.252 27.266 143.71 27.0686 144.084 26.674C144.468 26.2793 144.66 25.7406 144.66 25.058ZM150.751 19.666C150.271 19.666 149.876 19.5273 149.567 19.25C149.268 18.962 149.119 18.61 149.119 18.194C149.119 17.7673 149.268 17.4153 149.567 17.138C149.876 16.85 150.271 16.706 150.751 16.706C151.22 16.706 151.604 16.85 151.903 17.138C152.212 17.4153 152.367 17.7673 152.367 18.194C152.367 18.61 152.212 18.962 151.903 19.25C151.604 19.5273 151.22 19.666 150.751 19.666ZM152.111 20.594V29.522H149.375V20.594H152.111ZM159.534 20.498C160.579 20.498 161.411 20.8393 162.03 21.522C162.659 22.194 162.974 23.122 162.974 24.306V29.522H160.254V24.674C160.254 24.0766 160.099 23.6126 159.79 23.282C159.48 22.9513 159.064 22.786 158.542 22.786C158.019 22.786 157.603 22.9513 157.294 23.282C156.984 23.6126 156.83 24.0766 156.83 24.674V29.522H154.094V20.594H156.83V21.778C157.107 21.3833 157.48 21.074 157.95 20.85C158.419 20.6153 158.947 20.498 159.534 20.498ZM175.258 27.538H171.066L170.394 29.522H167.53L171.594 18.29H174.762L178.826 29.522H175.93L175.258 27.538ZM174.554 25.426L173.162 21.314L171.786 25.426H174.554ZM179.519 25.058C179.519 24.13 179.705 23.3193 180.079 22.626C180.463 21.9326 180.991 21.3993 181.663 21.026C182.345 20.6526 183.124 20.466 183.999 20.466C185.119 20.466 186.052 20.7593 186.799 21.346C187.556 21.9326 188.052 22.7593 188.287 23.826H185.375C185.129 23.1433 184.655 22.802 183.951 22.802C183.449 22.802 183.049 22.9993 182.751 23.394C182.452 23.778 182.303 24.3326 182.303 25.058C182.303 25.7833 182.452 26.3433 182.751 26.738C183.049 27.122 183.449 27.314 183.951 27.314C184.655 27.314 185.129 26.9726 185.375 26.29H188.287C188.052 27.3353 187.556 28.1566 186.799 28.754C186.041 29.3513 185.108 29.65 183.999 29.65C183.124 29.65 182.345 29.4633 181.663 29.09C180.991 28.7166 180.463 28.1833 180.079 27.49C179.705 26.7966 179.519 25.986 179.519 25.058ZM189.206 25.058C189.206 24.13 189.393 23.3193 189.766 22.626C190.15 21.9326 190.678 21.3993 191.35 21.026C192.033 20.6526 192.811 20.466 193.686 20.466C194.806 20.466 195.739 20.7593 196.486 21.346C197.243 21.9326 197.739 22.7593 197.974 23.826H195.062C194.817 23.1433 194.342 22.802 193.638 22.802C193.137 22.802 192.737 22.9993 192.438 23.394C192.139 23.778 191.99 24.3326 191.99 25.058C191.99 25.7833 192.139 26.3433 192.438 26.738C192.737 27.122 193.137 27.314 193.638 27.314C194.342 27.314 194.817 26.9726 195.062 26.29H197.974C197.739 27.3353 197.243 28.1566 196.486 28.754C195.729 29.3513 194.795 29.65 193.686 29.65C192.811 29.65 192.033 29.4633 191.35 29.09C190.678 28.7166 190.15 28.1833 189.766 27.49C189.393 26.7966 189.206 25.986 189.206 25.058ZM207.854 24.914C207.854 25.17 207.838 25.4366 207.806 25.714H201.614C201.656 26.2686 201.832 26.6953 202.142 26.994C202.462 27.282 202.851 27.426 203.31 27.426C203.992 27.426 204.467 27.138 204.734 26.562H207.646C207.496 27.1486 207.224 27.6766 206.83 28.146C206.446 28.6153 205.96 28.9833 205.374 29.25C204.787 29.5166 204.131 29.65 203.406 29.65C202.531 29.65 201.752 29.4633 201.07 29.09C200.387 28.7166 199.854 28.1833 199.47 27.49C199.086 26.7966 198.894 25.986 198.894 25.058C198.894 24.13 199.08 23.3193 199.454 22.626C199.838 21.9326 200.371 21.3993 201.054 21.026C201.736 20.6526 202.52 20.466 203.406 20.466C204.27 20.466 205.038 20.6473 205.71 21.01C206.382 21.3726 206.904 21.89 207.278 22.562C207.662 23.234 207.854 24.018 207.854 24.914ZM205.054 24.194C205.054 23.7246 204.894 23.3513 204.574 23.074C204.254 22.7966 203.854 22.658 203.374 22.658C202.915 22.658 202.526 22.7913 202.206 23.058C201.896 23.3246 201.704 23.7033 201.63 24.194H205.054ZM212.929 29.65C212.15 29.65 211.457 29.5166 210.849 29.25C210.241 28.9833 209.761 28.6206 209.409 28.162C209.057 27.6926 208.86 27.17 208.817 26.594H211.521C211.553 26.9033 211.697 27.154 211.953 27.346C212.209 27.538 212.524 27.634 212.897 27.634C213.238 27.634 213.5 27.57 213.681 27.442C213.873 27.3033 213.969 27.1273 213.969 26.914C213.969 26.658 213.836 26.4713 213.569 26.354C213.302 26.226 212.87 26.0873 212.273 25.938C211.633 25.7886 211.1 25.634 210.673 25.474C210.246 25.3033 209.878 25.042 209.569 24.69C209.26 24.3273 209.105 23.842 209.105 23.234C209.105 22.722 209.244 22.258 209.521 21.842C209.809 21.4153 210.225 21.0793 210.769 20.834C211.324 20.5886 211.98 20.466 212.737 20.466C213.857 20.466 214.737 20.7433 215.377 21.298C216.028 21.8526 216.401 22.5886 216.497 23.506H213.969C213.926 23.1966 213.788 22.9513 213.553 22.77C213.329 22.5886 213.03 22.498 212.657 22.498C212.337 22.498 212.092 22.562 211.921 22.69C211.75 22.8073 211.665 22.9726 211.665 23.186C211.665 23.442 211.798 23.634 212.065 23.762C212.342 23.89 212.769 24.018 213.345 24.146C214.006 24.3166 214.545 24.4873 214.961 24.658C215.377 24.818 215.74 25.0846 216.049 25.458C216.369 25.8206 216.534 26.3113 216.545 26.93C216.545 27.4526 216.396 27.922 216.097 28.338C215.809 28.7433 215.388 29.0633 214.833 29.298C214.289 29.5326 213.654 29.65 212.929 29.65ZM221.851 29.65C221.072 29.65 220.379 29.5166 219.771 29.25C219.163 28.9833 218.683 28.6206 218.331 28.162C217.979 27.6926 217.781 27.17 217.739 26.594H220.443C220.475 26.9033 220.619 27.154 220.875 27.346C221.131 27.538 221.445 27.634 221.819 27.634C222.16 27.634 222.421 27.57 222.603 27.442C222.795 27.3033 222.891 27.1273 222.891 26.914C222.891 26.658 222.757 26.4713 222.491 26.354C222.224 26.226 221.792 26.0873 221.195 25.938C220.555 25.7886 220.021 25.634 219.595 25.474C219.168 25.3033 218.8 25.042 218.491 24.69C218.181 24.3273 218.027 23.842 218.027 23.234C218.027 22.722 218.165 22.258 218.443 21.842C218.731 21.4153 219.147 21.0793 219.691 20.834C220.245 20.5886 220.901 20.466 221.659 20.466C222.779 20.466 223.659 20.7433 224.299 21.298C224.949 21.8526 225.323 22.5886 225.419 23.506H222.891C222.848 23.1966 222.709 22.9513 222.475 22.77C222.251 22.5886 221.952 22.498 221.579 22.498C221.259 22.498 221.013 22.562 220.843 22.69C220.672 22.8073 220.587 22.9726 220.587 23.186C220.587 23.442 220.72 23.634 220.987 23.762C221.264 23.89 221.691 24.018 222.267 24.146C222.928 24.3166 223.467 24.4873 223.883 24.658C224.299 24.818 224.661 25.0846 224.971 25.458C225.291 25.8206 225.456 26.3113 225.467 26.93C225.467 27.4526 225.317 27.922 225.019 28.338C224.731 28.7433 224.309 29.0633 223.755 29.298C223.211 29.5326 222.576 29.65 221.851 29.65Z" fill="white"/>
<path d="M178.058 47L178.058 72.1875L90.0584 72.1875L90.0584 99" stroke="#7A92EE"/>
<path d="M178.058 47L178.058 72.1875L265.058 72.1875L265.058 99" stroke="#7A92EE"/>
<path d="M84.0583 169L84.0583 194.188L39.0584 194.187L39.0584 221" stroke="#7A92EE"/>
<path d="M134.058 265L134.058 290.188L89.0584 290.187L89.0584 317" stroke="#7A92EE"/>
<path d="M265.058 169L265.058 194.188L220.058 194.187L220.058 221" stroke="#7A92EE"/>
<path d="M84.0583 169L84.0583 194.188L128.058 194.187L128.058 221" stroke="#7A92EE"/>
<path d="M134.058 265L134.058 290.188L194.058 290.187L194.058 317" stroke="#7A92EE"/>
<path d="M265.058 169L265.058 194.188L309.058 194.187L309.058 221" stroke="#7A92EE"/>
</svg>
