<svg width="32" height="33" viewBox="0 0 32 33" fill="none" xmlns="http://www.w3.org/2000/svg">
<g id="Social Icons">
<path id="BG" opacity="0.1" fill-rule="evenodd" clip-rule="evenodd" d="M0 16.7288C0 7.8922 7.16344 0.72876 16 0.72876C24.8366 0.72876 32 7.8922 32 16.7288C32 25.5653 24.8366 32.7288 16 32.7288C7.16344 32.7288 0 25.5653 0 16.7288Z" fill="white"/>
<path id="Path" fill-rule="evenodd" clip-rule="evenodd" d="M16.0008 8.19531C13.6833 8.19531 13.3924 8.20545 12.4822 8.24687C11.5737 8.28847 10.9536 8.43229 10.411 8.64332C9.8498 8.86127 9.3737 9.15283 8.89939 9.62733C8.42471 10.1016 8.13316 10.5777 7.91449 11.1388C7.70293 11.6816 7.55893 12.3018 7.51804 13.2099C7.47733 14.1202 7.46666 14.4112 7.46666 16.7287C7.46666 19.0463 7.47697 19.3362 7.51822 20.2465C7.55999 21.1549 7.70382 21.775 7.91466 22.3176C8.1328 22.8788 8.42436 23.3549 8.89885 23.8293C9.37299 24.3039 9.84908 24.5962 10.41 24.8142C10.9529 25.0252 11.5732 25.169 12.4815 25.2106C13.3917 25.252 13.6824 25.2622 15.9997 25.2622C18.3174 25.2622 18.6074 25.252 19.5176 25.2106C20.4261 25.169 21.0469 25.0252 21.5898 24.8142C22.1509 24.5962 22.6263 24.3039 23.1004 23.8293C23.5751 23.3549 23.8667 22.8788 24.0853 22.3178C24.2951 21.775 24.4391 21.1547 24.4818 20.2466C24.5227 19.3364 24.5333 19.0463 24.5333 16.7287C24.5333 14.4112 24.5227 14.1204 24.4818 13.2101C24.4391 12.3017 24.2951 11.6816 24.0853 11.139C23.8667 10.5777 23.5751 10.1016 23.1004 9.62733C22.6258 9.15266 22.1511 8.8611 21.5893 8.64332C21.0453 8.43229 20.4248 8.28847 19.5164 8.24687C18.6062 8.20545 18.3164 8.19531 15.9981 8.19531H16.0008ZM15.2352 9.73308C15.4624 9.73273 15.716 9.73308 16.0008 9.73308C18.2792 9.73308 18.5492 9.74126 19.449 9.78215C20.281 9.82019 20.7325 9.95922 21.0333 10.076C21.4316 10.2307 21.7155 10.4156 22.014 10.7142C22.3126 11.0129 22.4975 11.2974 22.6526 11.6956C22.7694 11.996 22.9086 12.4476 22.9464 13.2796C22.9873 14.1792 22.9962 14.4494 22.9962 16.7268C22.9962 19.0041 22.9873 19.2743 22.9464 20.1739C22.9084 21.0059 22.7694 21.4575 22.6526 21.7579C22.4979 22.1561 22.3126 22.4397 22.014 22.7382C21.7153 23.0369 21.4317 23.2218 21.0333 23.3764C20.7329 23.4938 20.281 23.6324 19.449 23.6705C18.5494 23.7114 18.2792 23.7203 16.0008 23.7203C13.7222 23.7203 13.4521 23.7114 12.5525 23.6705C11.7205 23.6321 11.269 23.493 10.968 23.3762C10.5698 23.2216 10.2853 23.0367 9.98665 22.738C9.68798 22.4393 9.50309 22.1556 9.34806 21.7572C9.23126 21.4568 9.09206 21.0052 9.0542 20.1732C9.01331 19.2736 9.00513 19.0034 9.00513 16.7246C9.00513 14.4458 9.01331 14.177 9.0542 13.2775C9.09224 12.4455 9.23126 11.9939 9.34806 11.6931C9.50273 11.2949 9.68798 11.0104 9.98665 10.7118C10.2853 10.4131 10.5698 10.2282 10.968 10.0732C11.2688 9.95584 11.7205 9.81717 12.5525 9.77895C13.3398 9.74339 13.6448 9.73273 15.2352 9.73095V9.73308ZM20.5558 11.15C19.9905 11.15 19.5318 11.6081 19.5318 12.1736C19.5318 12.739 19.9905 13.1977 20.5558 13.1977C21.1212 13.1977 21.5798 12.739 21.5798 12.1736C21.5798 11.6083 21.1212 11.15 20.5558 11.15ZM16.0008 12.3464C13.5807 12.3464 11.6185 14.3086 11.6185 16.7287C11.6185 19.1488 13.5807 21.1101 16.0008 21.1101C18.4209 21.1101 20.3824 19.1488 20.3824 16.7287C20.3824 14.3086 18.4209 12.3464 16.0008 12.3464ZM16.0008 13.8842C17.5716 13.8842 18.8452 15.1577 18.8452 16.7287C18.8452 18.2996 17.5716 19.5732 16.0008 19.5732C14.4297 19.5732 13.1563 18.2996 13.1563 16.7287C13.1563 15.1577 14.4297 13.8842 16.0008 13.8842Z" fill="white"/>
</g>
</svg>
