<svg width="32" height="33" viewBox="0 0 32 33" fill="none" xmlns="http://www.w3.org/2000/svg">
<g id="Social Icons">
<path id="BG" opacity="0.1" fill-rule="evenodd" clip-rule="evenodd" d="M0 16.7288C0 7.8922 7.16344 0.72876 16 0.72876C24.8366 0.72876 32 7.8922 32 16.7288C32 25.5653 24.8366 32.7288 16 32.7288C7.16344 32.7288 0 25.5653 0 16.7288Z" fill="white"/>
<path id="Path" fill-rule="evenodd" clip-rule="evenodd" d="M24.5333 16.7168C24.5333 17.2939 24.4746 17.8702 24.3592 18.4319C24.2467 18.9804 24.08 19.5188 23.8616 20.0335C23.6483 20.539 23.3837 21.0262 23.0745 21.4806C22.77 21.9321 22.4191 22.3557 22.0336 22.7418C21.6474 23.1262 21.2224 23.4761 20.7711 23.782C20.3152 24.089 19.8273 24.3533 19.3214 24.5676C18.806 24.7848 18.2664 24.9512 17.7184 25.0635C17.1559 25.1792 16.5775 25.2383 15.9996 25.2383C15.4212 25.2383 14.8429 25.1792 14.2812 25.0635C13.7324 24.9512 13.1928 24.7848 12.6778 24.5676C12.1719 24.3533 11.6836 24.089 11.2277 23.782C10.7764 23.4762 10.3514 23.1262 9.96597 22.7418C9.58013 22.3557 9.22926 21.9321 8.92425 21.4806C8.61673 21.0262 8.3517 20.539 8.13754 20.0335C7.91917 19.5188 7.7521 18.9803 7.63917 18.4319C7.52501 17.8702 7.46666 17.2939 7.46666 16.7168C7.46666 16.1393 7.52498 15.5618 7.63921 15.0012C7.75213 14.4528 7.9192 13.9136 8.13757 13.3997C8.35173 12.8938 8.61677 12.4062 8.92428 11.9518C9.2293 11.4999 9.58017 11.0771 9.96601 10.6906C10.3514 10.3061 10.7765 9.95704 11.2277 9.65163C11.6836 9.34329 12.172 9.07911 12.6778 8.86439C13.1928 8.64673 13.7324 8.47991 14.2812 8.36841C14.8429 8.25358 15.4213 8.19531 15.9996 8.19531C16.5776 8.19531 17.1559 8.25358 17.7185 8.36841C18.2664 8.47994 18.806 8.64677 19.3215 8.86439C19.8273 9.07908 20.3153 9.34329 20.7711 9.65163C21.2224 9.95704 21.6474 10.3061 22.0337 10.6906C22.4191 11.0771 22.77 11.4999 23.0746 11.9518C23.3837 12.4062 23.6483 12.8938 23.8616 13.3997C24.08 13.9136 24.2467 14.4528 24.3592 15.0012C24.4746 15.5618 24.5333 16.1393 24.5333 16.7168ZM12.8902 10.1347C10.858 11.093 9.34129 12.9629 8.86834 15.2164C9.06046 15.2181 12.0973 15.2563 15.5962 14.328C14.3349 12.0903 12.9873 10.2641 12.8902 10.1347ZM16.2 15.4486C12.4477 16.5703 8.8471 16.4896 8.71794 16.4846C8.71583 16.5629 8.71209 16.6386 8.71209 16.7168C8.71209 18.5863 9.41838 20.2906 10.5793 21.5792C10.5768 21.5754 12.5711 18.0425 16.5038 16.7726C16.5987 16.741 16.6954 16.7126 16.7913 16.6852C16.6084 16.2716 16.4087 15.8572 16.2 15.4486ZM20.8123 11.2552C19.5293 10.1255 17.8447 9.44028 15.9996 9.44028C15.4075 9.44028 14.8328 9.51185 14.2824 9.64416C14.3916 9.79064 15.7604 11.6039 17.0067 13.889C19.7565 12.8597 20.7944 11.2818 20.8123 11.2552ZM17.288 17.891C17.2718 17.8964 17.2556 17.901 17.2397 17.9068C12.94 19.4036 11.5358 22.4201 11.5206 22.453C12.7578 23.4137 14.3095 23.9933 15.9996 23.9933C17.0088 23.9933 17.9701 23.7882 18.8447 23.4167C18.7368 22.7809 18.3135 20.5523 17.288 17.891ZM20.0719 22.7517C21.7082 21.6491 22.8703 19.8982 23.1945 17.8702C23.0445 17.8219 21.0057 17.1774 18.6534 17.554C19.6093 20.177 19.9977 22.3132 20.0719 22.7517ZM17.5676 14.9734C17.7368 15.3204 17.9006 15.6736 18.0518 16.0286C18.1056 16.1559 18.1581 16.2808 18.2093 16.4056C20.7128 16.091 23.1791 16.6203 23.2846 16.6419C23.2679 14.9168 22.65 13.3336 21.6274 12.0941C21.6137 12.1136 20.4449 13.8 17.5676 14.9734Z" fill="white"/>
</g>
</svg>
