<svg width="32" height="33" viewBox="0 0 32 33" fill="none" xmlns="http://www.w3.org/2000/svg">
<g id="Social Icons">
<path id="BG" opacity="0.1" fill-rule="evenodd" clip-rule="evenodd" d="M0 16.7288C0 7.8922 7.16344 0.72876 16 0.72876C24.8366 0.72876 32 7.8922 32 16.7288C32 25.5653 24.8366 32.7288 16 32.7288C7.16344 32.7288 0 25.5653 0 16.7288Z" fill="white"/>
<path id="Path" fill-rule="evenodd" clip-rule="evenodd" d="M15.5208 13.7339L15.5544 14.2875L14.9948 14.2197C12.9579 13.9598 11.1784 13.0785 9.66756 11.5984L8.92891 10.864L8.73865 11.4063C8.33575 12.6153 8.59316 13.892 9.43253 14.7507C9.8802 15.2253 9.77948 15.2931 9.00725 15.0106C8.73865 14.9202 8.50363 14.8524 8.48124 14.8863C8.4029 14.9654 8.6715 15.9936 8.88414 16.4004C9.17513 16.9653 9.76828 17.5189 10.4174 17.8466L10.9658 18.1065L10.3167 18.1178C9.68994 18.1178 9.66756 18.1291 9.73471 18.3663C9.95854 19.1007 10.8427 19.8803 11.8276 20.2193L12.5214 20.4566L11.9171 20.8181C11.0218 21.3379 9.96973 21.6316 8.91772 21.6542C8.41409 21.6655 8 21.7107 8 21.7446C8 21.8576 9.36538 22.4903 10.16 22.7389C12.5438 23.4733 15.3753 23.157 17.5017 21.9028C19.0126 21.0102 20.5235 19.2363 21.2286 17.5189C21.6091 16.6037 21.9896 14.9315 21.9896 14.1293C21.9896 13.6096 22.0232 13.5418 22.6499 12.9204C23.0192 12.5588 23.3662 12.1633 23.4333 12.0504C23.5452 11.8357 23.534 11.8357 22.9633 12.0278C22.012 12.3667 21.8777 12.3215 22.3477 11.8131C22.6947 11.4515 23.1088 10.7962 23.1088 10.6041C23.1088 10.5702 22.9409 10.6267 22.7506 10.7284C22.5492 10.8414 22.1015 11.0109 21.7658 11.1126L21.1614 11.3046L20.613 10.9318C20.3108 10.7284 19.8856 10.5024 19.6617 10.4346C19.0909 10.2765 18.218 10.2991 17.7032 10.4798C16.3042 10.9883 15.4201 12.2989 15.5208 13.7339Z" fill="white"/>
</g>
</svg>
