<svg width="32" height="33" viewBox="0 0 32 33" fill="none" xmlns="http://www.w3.org/2000/svg">
<g id="Social Icons">
<path id="BG" opacity="0.1" fill-rule="evenodd" clip-rule="evenodd" d="M0 16.7288C0 7.8922 7.16344 0.72876 16 0.72876C24.8366 0.72876 32 7.8922 32 16.7288C32 25.5653 24.8366 32.7288 16 32.7288C7.16344 32.7288 0 25.5653 0 16.7288Z" fill="white"/>
<path id="Path" fill-rule="evenodd" clip-rule="evenodd" d="M22.6677 11.2283C23.4021 11.4298 23.9804 12.0235 24.1767 12.7775C24.5333 14.1441 24.5333 16.9954 24.5333 16.9954C24.5333 16.9954 24.5333 19.8466 24.1767 21.2132C23.9804 21.9673 23.4021 22.561 22.6677 22.7626C21.3369 23.1287 16 23.1287 16 23.1287C16 23.1287 10.6631 23.1287 9.33218 22.7626C8.59783 22.561 8.0195 21.9673 7.82323 21.2132C7.46667 19.8466 7.46667 16.9954 7.46667 16.9954C7.46667 16.9954 7.46667 14.1441 7.82323 12.7775C8.0195 12.0235 8.59783 11.4298 9.33218 11.2283C10.6631 10.8621 16 10.8621 16 10.8621C16 10.8621 21.3369 10.8621 22.6677 11.2283ZM14.4 14.5953V19.9287L18.6667 17.2621L14.4 14.5953Z" fill="white"/>
</g>
</svg>
